<svg xmlns="http://www.w3.org/2000/svg" width="47.935" height="47.935" viewBox="0 0 47.935 47.935">
  <g id="Grupo_43" data-name="Grupo 43" transform="translate(-182.244 -655.576)">
    <g id="Grupo_42" data-name="Grupo 42">
      <path id="Trazado_256" data-name="Trazado 256" d="M209.207,694.523v3h14.98v-8.492l-12.059-4.982.065-2.533L215.2,677V670.69a8.989,8.989,0,1,0-17.976-.134V677l3.007,4.51.064,2.533-12.058,4.987v8.492h22.1v-3h-19.1v-3.492l12.109-5-.138-5.456-2.984-4.473v-5.424a6.087,6.087,0,0,1,6.109-6.109,5.992,5.992,0,0,1,5.875,5.991V676.1l-2.984,4.477-.138,5.456,12.11,5v3.492Z" fill="#231f20"/>
      <path id="Trazado_257" data-name="Trazado 257" d="M185.24,658.572h11.984v-3h-14.98v14.98h3Z" fill="#231f20"/>
      <path id="Trazado_258" data-name="Trazado 258" d="M185.24,690.029h-3v13.482h13.482v-3H185.24Z" fill="#231f20"/>
      <path id="Trazado_259" data-name="Trazado 259" d="M215.2,655.576v3h11.984v11.984h3v-14.98Z" fill="#231f20"/>
      <path id="Trazado_260" data-name="Trazado 260" d="M227.183,700.515H215.2v3h14.98v-14.98h-3Z" fill="#231f20"/>
    </g>
  </g>
</svg>
