<svg xmlns="http://www.w3.org/2000/svg" width="94.466" height="78.813" viewBox="0 0 94.466 78.813">
  <path id="Trazado_236" data-name="Trazado 236" d="M247.106,109.771H221.38a11.213,11.213,0,0,0-20.875,0H174.781a10.891,10.891,0,0,0-11.071,10.675v50.348a10.89,10.89,0,0,0,11.071,10.674h72.336a10.892,10.892,0,0,0,11.059-10.674V120.446a10.89,10.89,0,0,0-11.07-10.675Zm-36.162,0a3.561,3.561,0,1,1-3.69,3.558A3.63,3.63,0,0,1,210.943,109.771ZM250.8,170.794a3.629,3.629,0,0,1-3.682,3.558H174.781a3.63,3.63,0,0,1-3.69-3.558V120.446a3.63,3.63,0,0,1,3.69-3.558h25.727a11.209,11.209,0,0,0,20.871,0h25.728a3.629,3.629,0,0,1,3.689,3.558ZM221.829,137.17H243.6v7.116H221.829Zm0,14.41H243.6V158.7H221.829Zm-15.636-2.389a10.88,10.88,0,0,0,2.168-6.507,11.631,11.631,0,0,0-23.247,0,10.885,10.885,0,0,0,2.277,6.654,17.678,17.678,0,0,0-8.92,15.229h7.381a11.077,11.077,0,0,1,22.14,0h7.38A17.7,17.7,0,0,0,206.192,149.191Zm-9.456-10.6a4.095,4.095,0,1,1-4.243,4.092A4.174,4.174,0,0,1,196.736,138.593Z" transform="translate(-163.71 -102.655)" fill="#d71921"/>
</svg>
