<svg xmlns="http://www.w3.org/2000/svg" width="64.609" height="80.996" viewBox="0 0 64.609 80.996">
  <g id="Grupo_70" data-name="Grupo 70" transform="translate(-91.757 -415.741)">
    <path id="Trazado_287" data-name="Trazado 287" d="M121.419,439.336c-6.226.008-24.8.07-24.8.07a5.772,5.772,0,0,0-4.862,5.874v45.513a5.731,5.731,0,0,0,5.478,5.944h24.29a5.737,5.737,0,0,0,5.484-5.944V445.28A5.821,5.821,0,0,0,121.419,439.336Zm-23.234,6.43h22.4v39.663h-22.4Zm11.2,48.141a3.213,3.213,0,0,1-2.692-1.524,3.162,3.162,0,0,1-.569-1.736,3.26,3.26,0,1,1,6.521,0,3.436,3.436,0,0,1-3.26,3.26Z" fill="#231f20"/>
    <path id="Trazado_288" data-name="Trazado 288" d="M141.378,415.741a14.987,14.987,0,1,0,14.988,14.987A15,15,0,0,0,141.378,415.741Zm0,25.434a10.446,10.446,0,1,1,10.447-10.447A10.457,10.457,0,0,1,141.378,441.175Z" fill="#231f20"/>
    <path id="Trazado_289" data-name="Trazado 289" d="M147.642,424.466a2.725,2.725,0,0,0-3.855,0l-2.409,2.41-2.408-2.41a2.726,2.726,0,0,0-3.856,3.854l2.412,2.409-2.412,2.41a2.725,2.725,0,0,0,3.856,3.852l2.408-2.41,2.409,2.41a2.725,2.725,0,0,0,3.855-3.852l-2.411-2.41,2.411-2.409A2.726,2.726,0,0,0,147.642,424.466Z" fill="#231f20"/>
  </g>
</svg>
