<svg xmlns="http://www.w3.org/2000/svg" width="83.316" height="67.461" viewBox="0 0 83.316 67.461">
  <g id="Grupo_452" data-name="Grupo 452" transform="translate(-34.052 -525.681)">
    <path id="Trazado_442" data-name="Trazado 442" d="M73.4,587.52v5.622h28.109V577.207l-22.628-9.349.121-4.753,5.641-8.472V542.8a16.866,16.866,0,1,0-33.731-.252v12.087l5.642,8.464.121,4.753-22.628,9.357v15.935H75.523V587.52H39.674v-6.552L62.4,571.577l-.258-10.237-5.6-8.394V542.768A11.421,11.421,0,0,1,68,531.3a11.242,11.242,0,0,1,11.024,11.241v10.4l-5.6,8.4-.258,10.237,22.723,9.383v6.552Z" fill="#d71921"/>
    <g id="Grupo_404" data-name="Grupo 404">
      <g id="Grupo_403" data-name="Grupo 403">
        <g id="Grupo_402" data-name="Grupo 402">
          <path id="Trazado_443" data-name="Trazado 443" d="M115.519,529.413l-17.2.027a1.832,1.832,0,0,0-1.3.546,1.851,1.851,0,0,0-.543,1.31v1.57a1.836,1.836,0,0,0,.54,1.307,1.856,1.856,0,0,0,1.312.553l10.048-.005-15.96,16.046a1.814,1.814,0,0,0-.008,2.581l1.1,1.108a1.861,1.861,0,0,0,2.625.047l16.017-16.1-.027,10.181a1.823,1.823,0,0,0,1.828,1.836l1.56,0a1.861,1.861,0,0,0,1.844-1.858l.018-17.287a1.859,1.859,0,0,0-1.849-1.856Z" fill="#d71921"/>
        </g>
      </g>
    </g>
  </g>
</svg>
