<svg xmlns="http://www.w3.org/2000/svg" width="65.616" height="77.518" viewBox="0 0 65.616 77.518">
  <g id="Grupo_76" data-name="Grupo 76" transform="translate(-268.243 -163.328)">
    <path id="Trazado_312" data-name="Trazado 312" d="M302.592,239.32a1.527,1.527,0,1,1-1.527-1.526A1.529,1.529,0,0,1,302.592,239.32Zm-33.586,0v-1.93a20.5,20.5,0,0,1,9.922-17.533,50.8,50.8,0,0,1,13.12-5.538v-2.457a14.09,14.09,0,0,1-2.092-2.31,36.535,36.535,0,0,1-4.443-8.174,3.2,3.2,0,0,1-2.454-1.819c-.461-.977-3.661-6.9-4.151-7.949a4.6,4.6,0,0,1,2.44-6.158,4.857,4.857,0,0,1,1.054-.306,17.643,17.643,0,0,1,17.123-21.818,6.528,6.528,0,0,1,4.555,1.839.033.033,0,0,0,.047,0,6.526,6.526,0,0,1,4.554-1.839,11.992,11.992,0,0,1,11.979,11.979v2.778a25.7,25.7,0,0,1-.977,7.032,4.248,4.248,0,0,1,1.079.312,4.607,4.607,0,0,1,2.441,6.158c-.518,1.04-3.69,6.972-4.152,7.949a3.2,3.2,0,0,1-2.452,1.82,36.549,36.549,0,0,1-4.45,8.193,14.074,14.074,0,0,1-2.1,2.312v2.457a50.858,50.858,0,0,1,13.121,5.539A20.5,20.5,0,0,1,333.1,237.39v1.93a1.526,1.526,0,0,1-1.526,1.526H307.933a1.528,1.528,0,0,1-1.524-1.628,1.562,1.562,0,0,1,1.576-1.424h22.059a17.692,17.692,0,0,0-8.44-15.319,47.8,47.8,0,0,0-11.724-5.043,9,9,0,0,1-17.657,0,47.826,47.826,0,0,0-11.725,5.043,17.481,17.481,0,0,0-8.44,15.319H294.2a1.528,1.528,0,0,1,1.521,1.632,1.562,1.562,0,0,1-1.577,1.42H270.532a1.526,1.526,0,0,1-1.526-1.526Zm15.952-58.134a7.9,7.9,0,0,1,5.87-2.751,7.78,7.78,0,0,1,4.919,1.753,7.188,7.188,0,0,0,11.714-5.6,1.526,1.526,0,0,1,3.051,0,4.9,4.9,0,0,0,2.737,4.41,10.073,10.073,0,0,1,3.964,3.312,22.66,22.66,0,0,0,.395-4.226v-2.779a8.937,8.937,0,0,0-8.927-8.927,3.49,3.49,0,0,0-2.435.983,3.074,3.074,0,0,1-4.286,0,3.49,3.49,0,0,0-2.435-.983A14.535,14.535,0,0,0,284.958,181.186ZM307,213.894a13.755,13.755,0,0,1-11.9,0v1.774a5.951,5.951,0,1,0,11.9,0Zm2.672-6.132a33.4,33.4,0,0,0,4.457-8.533,1.52,1.52,0,0,1,2.1-.868c.566-1.206,3.754-7.1,4.216-8.077a1.579,1.579,0,0,0-.874-2.046,1.643,1.643,0,0,0-1.391.07,1.534,1.534,0,0,1-2.239-1.134,6.892,6.892,0,0,0-3.986-5.411,7.652,7.652,0,0,1-2.762-2.193,11.881,11.881,0,0,1-1.709,2.275,10.176,10.176,0,0,1-13.665.707,4.7,4.7,0,0,0-6.262.317,4.993,4.993,0,0,0-1.458,3.473v.6a1.53,1.53,0,0,1-2.211,1.363,1.651,1.651,0,0,0-1.345-.045,1.554,1.554,0,0,0-.874,2.045c.458.98,3.716,6.962,4.2,8.055a1.562,1.562,0,0,1,2.114.89,33.433,33.433,0,0,0,4.451,8.515,10.606,10.606,0,0,0,17.243,0Zm24.185-35.278v-7.63a1.526,1.526,0,0,0-1.526-1.526H324.7a1.526,1.526,0,0,0,0,3.052h6.1v6.1a1.526,1.526,0,0,0,3.052,0Zm0,41.658v-7.63a1.526,1.526,0,0,0-3.052,0v6.1h-6.1a1.526,1.526,0,0,0,0,3.052h7.629A1.526,1.526,0,0,0,333.859,214.142ZM271.3,172.484v-6.1h6.1a1.526,1.526,0,1,0,0-3.052h-7.63a1.526,1.526,0,0,0-1.526,1.526v7.63a1.526,1.526,0,0,0,3.052,0Zm7.63,41.658a1.526,1.526,0,0,0-1.526-1.526h-6.1v-6.1a1.526,1.526,0,0,0-3.052,0v7.63a1.526,1.526,0,0,0,1.526,1.526h7.63A1.526,1.526,0,0,0,278.925,214.142Z" fill="#231f20"/>
  </g>
</svg>
