<svg xmlns="http://www.w3.org/2000/svg" width="48.975" height="48.975" viewBox="0 0 48.975 48.975">
  <g id="Grupo_83" data-name="Grupo 83" transform="translate(-276.478 -448.216)">
    <g id="Grupo_82" data-name="Grupo 82">
      <path id="Trazado_315" data-name="Trazado 315" d="M300.965,448.216A24.488,24.488,0,1,0,325.453,472.7,24.515,24.515,0,0,0,300.965,448.216Zm0,44.523A20.036,20.036,0,1,1,321,472.7,20.058,20.058,0,0,1,300.965,492.739Z" fill="#231f20"/>
      <path id="Trazado_316" data-name="Trazado 316" d="M300.965,458.605a2.968,2.968,0,1,0,2.967,2.969A2.972,2.972,0,0,0,300.965,458.605Z" fill="#231f20"/>
      <path id="Trazado_317" data-name="Trazado 317" d="M300.965,468.993a2.226,2.226,0,0,0-2.226,2.226v13.357a2.226,2.226,0,1,0,4.452,0V471.219A2.226,2.226,0,0,0,300.965,468.993Z" fill="#231f20"/>
    </g>
  </g>
</svg>
