<svg xmlns="http://www.w3.org/2000/svg" width="83.874" height="67.461" viewBox="0 0 83.874 67.461">
  <g id="Grupo_401" data-name="Grupo 401" transform="translate(-270.202 -378.58)">
    <path id="Trazado_440" data-name="Trazado 440" d="M309.554,440.419v5.622h28.109V430.106l-22.628-9.349.121-4.754,5.642-8.472V395.7a16.866,16.866,0,1,0-33.731-.251v12.086l5.641,8.464.121,4.753L270.2,430.106v15.935h41.47v-5.622H275.823v-6.552l22.724-9.391-.259-10.238-5.6-8.393V395.667A11.421,11.421,0,0,1,304.152,384.2a11.244,11.244,0,0,1,11.024,11.242v10.4l-5.6,8.4-.259,10.237,22.723,9.383v6.552Z"/>
    <g id="Grupo_400" data-name="Grupo 400">
      <g id="Grupo_399" data-name="Grupo 399">
        <path id="Trazado_441" data-name="Trazado 441" d="M330.422,407.367l17.205-.027a1.824,1.824,0,0,0,1.3-.546,1.847,1.847,0,0,0,.543-1.309v-1.57a1.864,1.864,0,0,0-1.852-1.86l-10.049.005,15.96-16.046a1.814,1.814,0,0,0,.008-2.581l-1.1-1.108a1.863,1.863,0,0,0-2.626-.048L333.8,398.38l.028-10.181a1.827,1.827,0,0,0-1.829-1.837l-1.56.005a1.833,1.833,0,0,0-1.3.547,1.853,1.853,0,0,0-.542,1.31l-.017,17.287a1.843,1.843,0,0,0,.543,1.311A1.818,1.818,0,0,0,330.422,407.367Z"/>
      </g>
    </g>
  </g>
</svg>
