<svg xmlns="http://www.w3.org/2000/svg" width="108.162" height="141.301" viewBox="0 0 108.162 141.301">
  <g id="Grupo_411" data-name="Grupo 411" transform="translate(-153.169 -59.753)">
    <g id="Grupo_407" data-name="Grupo 407">
      <path id="Trazado_444" data-name="Trazado 444" d="M236.176,68.857h-24.1V62.431a2.686,2.686,0,0,0-2.678-2.678H193.333a2.685,2.685,0,0,0-2.677,2.678v6.426h-24.1a13.393,13.393,0,0,0-13.388,13.388v92.111a13.393,13.393,0,0,0,13.388,13.388h69.619a13.394,13.394,0,0,0,13.388-13.388V82.245A13.394,13.394,0,0,0,236.176,68.857Zm-40.165-3.749h10.711V75.819H196.011Zm48.2,109.248a8.057,8.057,0,0,1-8.033,8.033H166.557a8.057,8.057,0,0,1-8.033-8.033V82.245a8.057,8.057,0,0,1,8.033-8.033h24.1V78.5a2.685,2.685,0,0,0,2.677,2.678H209.4a2.686,2.686,0,0,0,2.678-2.678V74.212h24.1a8.057,8.057,0,0,1,8.033,8.033Z" fill="#bf251c"/>
      <path id="Trazado_445" data-name="Trazado 445" d="M230.338,167.93H172.394a2.678,2.678,0,0,0,0,5.355h57.971a2.678,2.678,0,1,0-.027-5.355Z" fill="#bf251c"/>
      <path id="Trazado_446" data-name="Trazado 446" d="M185.782,156.148a2.678,2.678,0,0,0,0,5.355h31.2a2.678,2.678,0,1,0,0-5.355Z" fill="#bf251c"/>
      <g id="Grupo_406" data-name="Grupo 406">
        <g id="Grupo_405" data-name="Grupo 405">
          <path id="Trazado_447" data-name="Trazado 447" d="M215.169,129.368a6.744,6.744,0,0,1-6.66-5.411,16.292,16.292,0,0,0,4.627-6.046,2.375,2.375,0,0,0,.252.019,2.557,2.557,0,0,0,2.017-.986,17.32,17.32,0,0,0,3.493-11.2c-.276-8.623-6.276-15.421-13.669-15.5-.2-.008-.382,0-.527,0h-.011a12.96,12.96,0,0,0-5.63-1.078,14.065,14.065,0,0,0-10.754,5.807,20.589,20.589,0,0,0-3.7,14.91,20.416,20.416,0,0,0,1.646,5.721,2.549,2.549,0,0,0,2.923,1.421,16.718,16.718,0,0,0,5.018,6.918,6.764,6.764,0,0,1-6.662,5.425,10.434,10.434,0,0,0-10.079,10.415v10.35a2.556,2.556,0,0,0,2.556,2.557h42.678a2.556,2.556,0,0,0,2.556-2.557v-10.35A10.435,10.435,0,0,0,215.169,129.368ZM189.709,109.4c-.012-.079-.023-.157-.034-.236a14.924,14.924,0,0,1-.143-1.679,14.651,14.651,0,0,1,2.831-9.4,9.055,9.055,0,0,1,6.862-3.81,7.258,7.258,0,0,1,3.847.851,2.292,2.292,0,0,0,1.216.266c.053,0,.819-.04.858-.04,4.58.031,8.457,4.764,8.642,10.553a13.526,13.526,0,0,1-.077,1.959,15.186,15.186,0,0,0-7.2-6.41,2.558,2.558,0,0,0-3.388,1.47,10.939,10.939,0,0,1-.712,1.546,3.883,3.883,0,0,1-3.584,1.86c-.306-.01-.615-.011-.92,0a13.518,13.518,0,0,0-8.2,3.073Zm3.562,3.71a10.229,10.229,0,0,1,2.084-1.143,8.971,8.971,0,0,1,3.3-.529,8.993,8.993,0,0,0,7.971-4.054,10.657,10.657,0,0,1,3.133,3.941c-.791,5.737-4.362,10.1-8.413,10.1C197.731,121.429,194.487,118.011,193.271,113.113Zm5.618,13.141a10.665,10.665,0,0,0,2.457.288,10.873,10.873,0,0,0,2.472-.287,11.764,11.764,0,0,0,4.822,6.334,7.753,7.753,0,0,1-14.574,0A11.763,11.763,0,0,0,198.889,126.254Zm-16.318,21.323v-7.794a5.317,5.317,0,0,1,5.311-5.311c.059,0,.991-.053,1.391-.107a12.864,12.864,0,0,0,24.16,0c.4.054,1.332.107,1.391.107a5.317,5.317,0,0,1,5.311,5.311v7.794Z" fill="#bf251c"/>
        </g>
      </g>
    </g>
    <g id="Grupo_410" data-name="Grupo 410">
      <g id="Grupo_408" data-name="Grupo 408">
        <path id="Trazado_553" data-name="Trazado 553" d="M27.441,0A27.441,27.441,0,1,1,0,27.441,27.441,27.441,0,0,1,27.441,0Z" transform="translate(203.445 143.167)" fill="#bf251c"/>
        <path id="Trazado_448" data-name="Trazado 448" d="M230.885,201.054a30.447,30.447,0,1,1,30.446-30.447A30.481,30.481,0,0,1,230.885,201.054Zm0-54.882a24.435,24.435,0,1,0,24.435,24.435A24.463,24.463,0,0,0,230.885,146.172Z" fill="#fff"/>
      </g>
      <g id="Grupo_409" data-name="Grupo 409">
        <path id="Trazado_449" data-name="Trazado 449" d="M226.345,184.579a3,3,0,0,1-2.125-.881l-9.267-9.266a3.006,3.006,0,1,1,4.251-4.251l7.141,7.141,16.221-16.22a3.006,3.006,0,1,1,4.251,4.25L228.471,183.7A3,3,0,0,1,226.345,184.579Z" fill="#fff"/>
      </g>
    </g>
  </g>
</svg>
