<svg xmlns="http://www.w3.org/2000/svg" width="106.468" height="105.89" viewBox="0 0 106.468 105.89">
  <g id="Grupo_24" data-name="Grupo 24" transform="translate(-154.016 -107.253)">
    <path id="Trazado_237" data-name="Trazado 237" d="M230.4,127.315a7.121,7.121,0,0,1,7.112,7.115v10.645H244.6V134.43a14.215,14.215,0,0,0-14.2-14.2h-3.457a19,19,0,0,1,0,7.084Z" fill="#d71921"/>
    <path id="Trazado_238" data-name="Trazado 238" d="M176.989,134.43a7.122,7.122,0,0,1,7.113-7.115h3.453a19,19,0,0,1,0-7.084H184.1a14.217,14.217,0,0,0-14.2,14.2v10.645h7.086Z" fill="#d71921"/>
    <path id="Trazado_239" data-name="Trazado 239" d="M187.113,149.879c-6.863,0-27.054-.007-27.054-.007a6.315,6.315,0,0,0-6.043,6.547v50.172a6.318,6.318,0,0,0,6.043,6.552h26.774a6.32,6.32,0,0,0,6.043-6.552V156.419C192.876,153.06,190.145,149.879,187.113,149.879ZM161.1,156.955H185.79v43.723H161.1Zm12.351,53.069a3.533,3.533,0,0,1-2.967-1.68,3.5,3.5,0,0,1-.635-1.913,3.6,3.6,0,1,1,7.19,0,3.774,3.774,0,0,1-3.588,3.593Z" fill="#d71921"/>
    <path id="Trazado_240" data-name="Trazado 240" d="M254.322,149.867c-6.864.009-27.34.077-27.34.077a6.364,6.364,0,0,0-5.359,6.475v50.172a6.318,6.318,0,0,0,6.039,6.552h26.776a6.323,6.323,0,0,0,6.046-6.552V156.419A6.417,6.417,0,0,0,254.322,149.867Zm-25.613,7.088H253.4v43.723H228.709Zm12.344,53.069a3.541,3.541,0,0,1-2.967-1.68,3.487,3.487,0,0,1-.627-1.913,3.594,3.594,0,1,1,7.189,0,3.791,3.791,0,0,1-3.6,3.593Z" fill="#d71921"/>
    <path id="Trazado_241" data-name="Trazado 241" d="M207.248,107.253a16.521,16.521,0,1,0,16.521,16.521A16.54,16.54,0,0,0,207.248,107.253Zm0,28.036a11.515,11.515,0,1,1,11.516-11.515A11.526,11.526,0,0,1,207.248,135.289Z" fill="#d71921"/>
    <path id="Trazado_242" data-name="Trazado 242" d="M214.153,116.871a3,3,0,0,0-4.25,0l-2.655,2.656-2.656-2.656a3,3,0,0,0-4.249,4.248L203,123.774l-2.658,2.657a3,3,0,1,0,4.249,4.246l2.656-2.656,2.655,2.656a3,3,0,0,0,4.25-4.246l-2.659-2.657,2.659-2.655A3.006,3.006,0,0,0,214.153,116.871Z" fill="#d71921"/>
  </g>
</svg>
