<svg xmlns="http://www.w3.org/2000/svg" width="33.68" height="36.272" viewBox="0 0 33.68 36.272">
  <g id="Grupo_69" data-name="Grupo 69" transform="translate(-331.484 -684.721)">
    <g id="Grupo_38" data-name="Grupo 38" transform="translate(1.854 0.545)">
      <g id="Grupo_37" data-name="Grupo 37">
        <path id="Trazado_254" data-name="Trazado 254" d="M359.424,684.176a1.3,1.3,0,0,0-1.3,1.3V690.2a16.808,16.808,0,0,0-28.5,12.108,1.3,1.3,0,0,0,2.591,0,14.249,14.249,0,0,1,24.76-9.618l-5.738,1.913a1.3,1.3,0,1,0,.818,2.461l7.773-2.591a1.3,1.3,0,0,0,.886-1.233v-7.772A1.3,1.3,0,0,0,359.424,684.176Z" fill="#fff"/>
      </g>
    </g>
    <g id="Grupo_40" data-name="Grupo 40" transform="translate(1.854 0.545)">
      <g id="Grupo_39" data-name="Grupo 39">
        <path id="Trazado_255" data-name="Trazado 255" d="M362.015,701.017a1.3,1.3,0,0,0-1.3,1.295,14.249,14.249,0,0,1-24.761,9.618l5.739-1.913a1.3,1.3,0,1,0-.819-2.461l-7.772,2.591a1.294,1.294,0,0,0-.886,1.233v7.772a1.3,1.3,0,1,0,2.591,0V714.42a16.808,16.808,0,0,0,28.5-12.108A1.3,1.3,0,0,0,362.015,701.017Z" fill="#fff"/>
      </g>
    </g>
  </g>
</svg>
