<svg xmlns="http://www.w3.org/2000/svg" width="38.517" height="38.517" viewBox="0 0 38.517 38.517">
  <g id="Grupo_112" data-name="Grupo 112" transform="translate(-345.806 -28.068)">
    <g id="Grupo_109" data-name="Grupo 109">
      <g id="Grupo_108" data-name="Grupo 108">
        <path id="Trazado_321" data-name="Trazado 321" d="M383.721,44.916c-.31-.195-2.739-1.65-3.7-2.091l-1.2-2.889c.356-.955,1.035-3.634,1.141-4.1a1.283,1.283,0,0,0-.344-1.194l-1.87-1.871a1.287,1.287,0,0,0-1.194-.344c-.353.081-3.1.77-4.1,1.141l-2.888-1.2c-.423-.924-1.835-3.3-2.092-3.7a1.282,1.282,0,0,0-1.087-.6h-2.646a1.284,1.284,0,0,0-1.087.6c-.195.31-1.65,2.739-2.092,3.7l-2.888,1.2c-.955-.355-3.634-1.034-4.1-1.141a1.286,1.286,0,0,0-1.194.344l-1.871,1.871a1.286,1.286,0,0,0-.344,1.194c.081.352.77,3.1,1.141,4.1l-1.2,2.889c-.924.422-3.3,1.834-3.7,2.091a1.284,1.284,0,0,0-.6,1.087v2.646a1.282,1.282,0,0,0,.6,1.087c.31.195,2.739,1.65,3.7,2.092l1.2,2.888c-.355.955-1.034,3.634-1.141,4.1a1.287,1.287,0,0,0,.344,1.194l1.871,1.87a1.281,1.281,0,0,0,1.194.344c.352-.08,3.1-.769,4.1-1.141l2.888,1.2c.423.924,1.835,3.295,2.092,3.7a1.285,1.285,0,0,0,1.087.6h2.646a1.283,1.283,0,0,0,1.087-.6c.2-.31,1.65-2.739,2.092-3.7l2.888-1.2c.955.356,3.634,1.035,4.1,1.141a1.282,1.282,0,0,0,1.194-.344l1.87-1.87a1.285,1.285,0,0,0,.344-1.194c-.08-.353-.77-3.1-1.141-4.1l1.2-2.888c.923-.423,3.3-1.835,3.7-2.092a1.283,1.283,0,0,0,.6-1.087V46A1.285,1.285,0,0,0,383.721,44.916Zm-1.966,3.01h0c-.915.543-2.437,1.418-2.914,1.617a1.28,1.28,0,0,0-.978.775L376.23,54.26a1.282,1.282,0,0,0,.143,1.24c.2.479.655,2.174.917,3.205l-.848.847c-1.03-.262-2.726-.719-3.2-.917a1.285,1.285,0,0,0-1.24-.143l-3.942,1.633a1.285,1.285,0,0,0-.776.978c-.2.477-1.073,2-1.617,2.914h-1.2c-.544-.915-1.419-2.437-1.617-2.914a1.285,1.285,0,0,0-.776-.978l-3.942-1.633a1.285,1.285,0,0,0-1.24.143c-.478.2-2.173.655-3.2.917l-.848-.847c.263-1.031.72-2.726.917-3.205a1.28,1.28,0,0,0,.143-1.24l-1.632-3.942a1.285,1.285,0,0,0-.978-.775c-.477-.2-2-1.074-2.914-1.617v-1.2c.914-.543,2.437-1.419,2.914-1.617a1.283,1.283,0,0,0,.978-.776l1.633-3.942a1.285,1.285,0,0,0-.143-1.24c-.2-.478-.655-2.173-.918-3.2l.848-.848c1.031.263,2.726.72,3.2.918a1.285,1.285,0,0,0,1.24.143l3.942-1.633a1.287,1.287,0,0,0,.776-.978c.2-.477,1.073-2,1.617-2.914h1.2c.544.914,1.419,2.437,1.618,2.914a1.282,1.282,0,0,0,.775.978L372,36.161a1.285,1.285,0,0,0,1.24-.143c.478-.2,2.174-.655,3.2-.917l.847.847c-.262,1.031-.72,2.726-.917,3.2a1.285,1.285,0,0,0-.143,1.24l1.633,3.942a1.283,1.283,0,0,0,.978.776c.477.2,2,1.074,2.914,1.617v1.2Z" fill="#fff"/>
      </g>
    </g>
    <g id="Grupo_111" data-name="Grupo 111">
      <g id="Grupo_110" data-name="Grupo 110">
        <path id="Trazado_322" data-name="Trazado 322" d="M365.064,38.93a8.4,8.4,0,1,0,8.4,8.4A8.406,8.406,0,0,0,365.064,38.93Zm0,14.224a5.828,5.828,0,1,1,5.828-5.828A5.835,5.835,0,0,1,365.064,53.154Z" fill="#fff"/>
      </g>
    </g>
  </g>
</svg>
