<svg xmlns="http://www.w3.org/2000/svg" width="44.075" height="44.074" viewBox="0 0 44.075 44.074">
  <g id="Grupo_237" data-name="Grupo 237" transform="translate(-278.15 -979.595)">
    <path id="Trazado_333" data-name="Trazado 333" d="M317.587,991.192a1.835,1.835,0,0,0-.853,2.452,18.184,18.184,0,0,1,1.818,7.988,18.365,18.365,0,1,1-18.364-18.365,18.141,18.141,0,0,1,11.4,3.963,1.836,1.836,0,1,0,2.285-2.875,22.04,22.04,0,1,0,8.352,17.277,21.812,21.812,0,0,0-2.185-9.587A1.834,1.834,0,0,0,317.587,991.192Z" fill="#d71921"/>
    <path id="Trazado_334" data-name="Trazado 334" d="M300.188,986.94a1.838,1.838,0,0,0-1.837,1.837v12.855a1.837,1.837,0,0,0,1.837,1.836h9.182a1.837,1.837,0,0,0,0-3.673h-7.346V988.777A1.837,1.837,0,0,0,300.188,986.94Z" fill="#d71921"/>
  </g>
</svg>
