<svg xmlns="http://www.w3.org/2000/svg" width="264.703" height="196.54" viewBox="0 0 264.703 196.54">
  <path id="Trazado_190" data-name="Trazado 190" d="M307.776,550.285a1.085,1.085,0,0,1-.312-.623h-2.495c0,.936,0,1.562-.622,1.873-1.56.313-2.806-.311-4.363,0v.939c2.492.623,4.675,0,7.168-.314.624-.312.624-1.562.624-1.875m-52.828,11.178c-.458.457-1.822-.457-2.279,0s0,2.282,0,2.282c-1.821.913-4.556,0-6.377.913-.457,0-.457,2.282,0,2.282,2.733,1.371,5.922,1.371,7.743,0,.913-.911-.454-3.2.913-5.477m20.716,1.944c-1.56,0-3.117-.626-4.678,0v1.249h.934a5.494,5.494,0,0,1,.312,1.873c-1.246.625-2.494,0-3.739.313v.937c.936.314,1.87-.312,2.493.314,0,.311-.623,1.561,0,2.5h1.246v-1.25c.625-.312,1.249.313,1.561,0,.623-.624,0-2.187.623-2.812.311-.937,1.56.313,2.808-.624v-.625c-.625,0-.938,0-1.248-.312,0-.624.31-1.561-.312-1.561m3.74-10.31c-2.8,0-4.988-1.562-7.795-1.249v.937c1.56,0,3.118-.311,4.367.936.31.313,0,.626.31.938.938,0,2.185-.312,3.118.314.311,0-.309.936.311,1.561.312.312.934,0,1.247,0,0-.938.625-1.875,0-2.5-.621-.313-1.247-.937-1.558-.937m10.289-67.787c0-1.249-1.247-.625-2.183-.938-.313-.311.313-.937,0-1.249a1.39,1.39,0,0,0-1.558,0v.938c-.31.311-1.248-.314-1.557,0a2.417,2.417,0,0,0,0,1.561c2.492.935,2.8-.312,5.3-.312m-34.606,68.5c-1.369-.456-3.19-.456-2.733,1.369-1.369,0-3.192-.456-4.556.455-.455,0-.455,1.828,0,2.283.91.457,2.278,0,4.1,0-1.366-3.652,2.732-1.369,4.554-3.194a1.39,1.39,0,0,0,0-1.828h-1.364Zm-31.8-24.455c-.623-2.185,0-5,0-7.184.31,0,1.246-.312,1.246,0,.313.312,0,1.248,0,1.561.625.312,1.248,0,1.871,0-.311,1.562.625,3.124-.311,4.374-.312.312-.935-.312-1.247,0-.313.625.312,1.562,0,2.187-.313.311-1.249,0-1.559-.938m9.665-12.183c-.625-.625-1.247,0-1.87-.314v2.814c1.557-.314,1.87.936,1.557,2.5h1.249c0-1.876.623-3.437-1.561-4.063v-.936Zm.623,7.81c-.315,0-1.248-.314-1.56,0-.31.624,0,1.249,0,1.874-.933,0-1.557-.311-2.182.314-.311.311-.311,1.248,0,1.248a2.974,2.974,0,0,0,3.119-.624c.308-.313-.313-.938,0-1.249s.936.311,1.247,0a1.887,1.887,0,0,0,.312-1.251,1.145,1.145,0,0,0-.936-.312M223.6,508.738h-1.558c-.309.626,0,1.563,0,1.875-.934,0-1.557-.312-2.18.311-.312.625-.312,1.251,0,1.251a2.4,2.4,0,0,0,3.118-.313c.31-.313-.313-1.249,0-1.561.31,0,.932.312,1.244,0,.312,0,.312-.625.312-1.249a1.142,1.142,0,0,0-.936-.314m-1.558,10c-1.557-.626-3.429-.626-2.8,1.561-1.25,0-2.495-.311-3.428,0,0,0-.315.939,0,1.25s.933,0,1.246,0c.31.314.622.626.622.938h.623v1.249c.937,0,2.184.312,2.491-.313a8.394,8.394,0,0,0,0-2.811h1.25c.315-.624.625-1.874,0-1.874m-9.042,10c.627-.625,1.562-.313,2.495,0,.315.311-.31.311-.933.937a1.5,1.5,0,0,0,0,1.249c1.248.625,3.116.937,3.739,0,2.184-2.186-1.558-3.747-2.806-5.311,0-.312-.933,0-1.248,0a24.5,24.5,0,0,1-3.115-4.685c0-.313-.937,0-.937,0-.624,2.811-.934,5.31,0,7.81h1.56c0,.624-.313,1.873,0,2.186h.623c.312-.624-.623-1.875.622-2.186m14.656-38.423c0-.626.31-1.563,0-1.876-.624,0-.937.313-1.56.624-.935.626-2.184-.624-3.429-.311v.937c-.625.313-1.875-.312-2.182.313-.623.313-.623,1.874-.314,2.187,1.871.935,6.236,1.248,6.861-1.874H226.4v-.938a.946.946,0,0,1,1.249,0Zm24.939-35.3c-1.557,0-4.988,0-3.429,1.872a5.079,5.079,0,0,0,3.742,0c.313-.312.313-1.872-.313-1.872m12.784,71.222c-1.561,0-4.988-.313-3.428,1.563.312.624,2.491.937,3.739,0,0-.313,0-1.563-.311-1.563m19.644-45.92c-1.564,0-4.992-.312-3.432,1.561a4.989,4.989,0,0,0,3.742,0c0-.312,0-1.561-.31-1.561M263.5,481.873c-1.557,0-4.989-.312-3.426,1.562.62.312,2.8.626,3.736,0,.313-.312.313-1.562-.31-1.562m-4.989-14.056c-1.557,0-4.986-.313-3.428,1.56a3.265,3.265,0,0,0,3.739,0c.314-.312.314-1.56-.311-1.56m14.966,90.28c-1.561,0-4.988,0-3.428,1.56.31.624,2.8.938,3.74,0,.311,0,.311-1.56-.312-1.56m9.351-34.99c-1.557,0-4.985-.312-3.428,1.562.311.626,2.495.938,3.742,0,0-.312,0-1.562-.314-1.562m0,11.559c-1.557,0-4.985-.311-3.428,1.562a3.27,3.27,0,0,0,3.742,0c.309-.312.309-1.562-.314-1.562m-14.026,11.247c-1.56,0-4.992-.313-3.431,1.561.624.313,2.806.625,3.739,0,.315-.313.315-1.561-.308-1.561m32.735-43.11c-1.557,0-4.99-.312-3.429,1.563.309.624,2.8.936,3.741,0,.312-.313.312-1.563-.312-1.563m-55.495-28.739c-1.557,0-4.989-.312-3.429,1.561a3.265,3.265,0,0,0,3.739,0c.313-.312.313-1.561-.31-1.561m-18.084,8.121c1.87-.312.937,2.5,1.247,3.75h-.933c-.624-.938,0-2.5-.314-3.75m35.852,8.124c1.872-.313.938,2.185,1.248,3.434h-.624c-.934-.937,0-2.5-.624-3.434m65.785,70.91c1.871-.312.936,2.188,1.248,3.749h-.623c-.937-1.25,0-2.811-.625-3.749m-1.247-10.934c1.872-.311.935,2.5,1.247,3.749h-.624c-.933-1.249,0-2.81-.623-3.749m-75.135-8.121c1.87,0,.935,2.5,1.247,3.749h-.935c-.625-.937,0-2.5-.312-3.749m35.852-14.993c1.872,0,.938,2.5,1.249,3.747h-.625c-.935-.937,0-2.5-.624-3.747m-10.6,49.044c1.87-.314.933,2.5,1.244,3.747h-.934c-.624-.936,0-2.5-.31-3.747m-66.72-109.961c-.623,0-1.56.625-1.872-.312s-.936-1.25-1.559-.938c-.31,0-.31.938,0,1.562h.937c0,.938-.937,2.187-.314,3.436h1.248c.312-1.249-.312-2.5.312-3.123.625-.937,2.183,0,3.432-.625ZM223.286,477.5c-.31-.937,0-2.187-.31-2.187a2.811,2.811,0,0,0-3.118,0c-.312,0-.312,1.25,0,1.562.623,0,1.559-.312,2.18,0,0,0-.309,1.25,0,1.563H223.6c0-.313,0-.313-.31-.938m-8.437-7.711c0,.312-.624,0-.936,0-.624-1.249,0-4.061-1.247-2.811-.936.625-.936,3.123,0,4.061.623,1.563,2.493.936,3.74,2.186,0,.313.938,0,1.247,0,.316-.936-.933-2.5,0-3.124.94-.937,2.494-.937,4.055-.937,0-1.248.624-.936,1.245-1.561.313-.625,1.251-1.562.624-2.5s-1.869-.936-3.118-.936a1.146,1.146,0,0,0-.312.936c-.309-.311-.622-.936-1.244-.936-1.873,0-3.744-.938-5.614-.314-.311.314.313.314.313.625,1.247-.311,2.184.625,2.8,1.25.314.313,0,1.875,0,2.5-1.247-.312-1.247.623-1.557,1.561m-.733,75.873,1.059.433c.408,2.025-.99,3.931-1.86,6.054-.53-.215-1.589-.65-1.589-.65.87-2.122,2.27-4.029,2.39-5.837m-2.6,8.989v-1.929h-2.885v1.448c-.964.48-2.409-.485-3.852.48-.483.484-.483,1.448-.483,2.9,0-.482-.478,0-.963,0a2.192,2.192,0,0,0,0,2.412c.485.482.963,0,1.928,0,0-1.448,0-2.412.961-2.412,2.409,0,6.741,0,6.26-3.861Zm-2.911-6.388V547.3h-2.891v1.93c-1.446.482-3.37-.965-4.335.482-.48,0,.484,1.447,0,1.931-.96.481-2.4-.484-2.887,0s0,1.928,0,2.894c1.927-.483,1.445.965,1.927,2.412.48.482,1.444,0,1.925,0-.965-4.825,4.333-3.86,6.741-5.306.963-.484,1.445-2.413.963-4.343h-.963a1.685,1.685,0,0,0-.48.965M191.175,529.98c-.624.314-1.872-.624-1.872.314-.623.936,0,2.188-.623,3.435s-2.183-.312-3.12.626c-.309.623,0,1.249,0,1.561,1.247-.312,1.247,1.249,1.559,1.249a8.741,8.741,0,0,0,3.124.66l-.415.414c-.961.482-2.4-.965-2.887.482s-1.926,3.377-.481,5.307c.481.482,2.407-.965,2.407.482.481,1.447,1.925,1.447,2.888,2.412a2.874,2.874,0,0,0,.232,1.077,4.47,4.47,0,0,0-3.333,1.578c-1.446.967-.482,3.379-.482,5.308,2.407-.963,1.927,1.447,3.371,2.9.481,0,.964.482,1.445.482-.481.482.48,1.446.965,1.446a9.354,9.354,0,0,0,6.257.483v-1.447c-5.3,0-1.929-6.269-3.372-9.647a3.706,3.706,0,0,1-1.443-.484,5.844,5.844,0,0,0-1.157-.42c.352-.906-.075-1.841-.075-3.2-.964,0-1.444,0-1.444-.482-.483-.964-.964-2.412-1.927-2.893-.946-.475-.5-2.351-.482-3.791,1.071.045,2.1-.036,3.044-.036,0-1.562.315-3.435-.309-5,0-1.25-1.87-.311-2.494-.938-.938-.625-.312-1.25.936-1.561v-.625Zm14.342-10.307h-.626a1.937,1.937,0,0,0-.623,2.187h.623c0,1.56,0,3.747,1.558,2.809.624-.624.624-2.185.314-3.434h-.623c-.623-.626,0-1.25-.623-1.562m-2.808-2.5c-2.492-.625-1.246,3.123-1.561,4.687h.623a9.528,9.528,0,0,1,.938-5Zm-4.677,2.812v-.939c-1.558.627-1.246-.937-1.87-2.187-.311-.311-.937,0-1.56,0,.315,2.187.939,4.687,0,6.874a2.419,2.419,0,0,0-1.557,0v1.874c.624,0,1.557-.624,2.18,0v1.25c.626.314,1.873-.311,2.184.314.623.624-.623,1.561-.935,2.185-.312.938.312,1.562,0,2.5-.312,0-.933-.312-1.249,0s0,.938,0,1.562c.316-.312.626.312.626.312.311.937-.31,2.187.311,3.436h1.247c-.311,3.438,2.184,4.061,4.678,3.749,0-2.187-.316-4.686.31-6.871.623-1.875,3.12.312,4.366-1.25a4.947,4.947,0,0,0-.314-4.686c-.309-.625-.309-.936-.932-1.25-.314-.311-1.249.314-1.559,0-2.187-1.874-4.677-1.25-6.86-2.5v-.937a2.013,2.013,0,0,0,2.183-3.124c-.313-.311-.936,0-1.249-.311M180.148,558.5a1.3,1.3,0,0,0,.112.217c0,.312.625,0,1.248,0,0-.277.029-.53.05-.762a2.854,2.854,0,0,0,.133-3.045h-1.444c0-1.446,0-2.893-.478-2.893a17.816,17.816,0,0,1-8.67-3.86c-1.928-.964-5.777.965-4.333,2.412,1.445,1.93,4.814,2.412,7.7,2.895,1.444.482,2.407,1.931,3.37,3.861,1.442,1.447,0,2.893.483,4.338h-.483v1.449c1.929,0,3.851.483,5.3-.481.961-.968-.481-1.448-1.445-1.932l-2.409-1.446v-.964a2.9,2.9,0,0,0,.866.211m.112-19.463c-.623-.313,0-1.563,0-1.563a12.776,12.776,0,0,0-8.418,1.25c-1.246.626-.308,3.437-1.246,4.061-2.181,1.25-2.8,1.25-5.3.938,0,.624-.31,1.874.315,1.874,1.554.938.932,1.561,2.18.626a3.259,3.259,0,0,0,1.246-.938c.313-.626,2.182-.312,2.5,0,.308.625-.625.625-.315.938,2.184.935,4.678-.313,7.172.624-.312,1.563.937,1.249,2.184,1.249v.625h1.248a8.053,8.053,0,0,0,0-4.686,10.786,10.786,0,0,0-2.81-2.5c-.934-.624.315-1.248,1.562-1.248-.315-.312,0-.937-.315-1.25m-15.9,20.3a2.875,2.875,0,0,0-2.806-.937,3.965,3.965,0,0,0-.312-1.874c-.31-.313-.933,0-1.245,0-.31.624,0,1.874,0,2.5,1.557,0,2.806,1.249,4.363.625Zm4.99-4.372h-.935c-.934.623-1.25,2.811-.624,3.435,1.869,1.561.937-1.874,1.559-3.435m-2.5-1.876c-.934,0-2.184-.312-2.8.312-1.247.625-1.247,2.187-.936,3.437h.936c.31-.312,0-.937,0-1.25,1.246,0,2.184-.312,2.493-1.249.311-.313,0-1.25,0-2.187Zm-5.3-1.249c-.934-.313-.934.626-1.245,1.249-1.246.937-2.494-.312-2.808.624-1.558,2.5,2.5,1.563,4.053,1.875v-3.748Zm-3.115-4.687c-.624-.623-1.871,0-2.5,0,.313-1.561-.624-2.5-1.87-1.561,0,0,.312.938,0,1.25,0,.311-.934-.312-1.248,0v1.874c1.871.624,3.743.313,5.923.313,0-.624.315-1.876-.309-1.876m2.493-5a7.644,7.644,0,0,0-3.74.312v1.562a17.729,17.729,0,0,0,4.05-.312c-.31-.626.312-1.25-.31-1.562m16.524-9.371a9.062,9.062,0,0,0-4.989-.311c.313-1.252-1.248-1.877-1.558-1.252-.625,1.563-.625,4.06,0,5s3.43.937,4.364.312c.312-.312,0-2.185.312-2.811.312-.312,1.56,0,2.494-.312,0,0,.312-.935,0-1.249Zm-.666-8.914c1.446,0,3.855-.481,4.334.483,1.928,3.377.964,7.718.964,11.579h-.964c0-1.93,0-4.344-.961-5.791,0-.481-1.445.483-2.408,0-1.444-1.93-.483-4.341-.483-6.752Zm84.531-47a.773.773,0,0,0-.311-1.25c-.312,0-1.247.312-1.558,0,0-.312.311-.938.311-1.249a1.176,1.176,0,0,0-1.872-.312,8.555,8.555,0,0,0,0,2.811c1.249,0,2.5.625,3.43,0m40.532,89.968a.774.774,0,0,0,.312,1.25c.311,0,1.245-.314,1.555-.314v1.562c.315.313,1.249.938,1.562,0,.31-.624,0-1.874,0-2.812-1.247,0-2.5-.312-3.429.314m4.051-9.373a.955.955,0,0,0,0-1.249c-.622,0-1.245.313-1.557,0s0-.937,0-1.248a1.174,1.174,0,0,0-1.871-.314,8.527,8.527,0,0,0,0,2.811c1.244,0,2.493.627,3.428,0M234.548,537c.666,0,.666-1.334-.666-2-.666,0-2.663.667-3.326,0v-2.667c0-1.336-2.667-2.669-3.33-.668-.666,1.334,0,4,0,6,2.662,0,5.326,1.333,7.322-.667m-24.357.477c.312,0,.312-.623-.312-.937-.622,0-1.245.314-1.559,0s0-.936,0-1.25c-.31-.624-1.247-1.247-1.557-.312-.314.626,0,1.876,0,2.812,1.247,0,2.494.625,3.428-.313m46.144,5.623a.771.771,0,0,0,.31,1.25c.623,0,1.561-.312,1.87,0s0,1.25,0,1.563a1.3,1.3,0,0,0,2.183,0c.312-.937-.311-2.187-.311-3.437-1.561,0-3.119-.312-4.052.624m8.727-21.865c0-.313-.624-.313-.935.311,0,.626.311,1.249,0,1.561s-.935,0-1.245,0a1.181,1.181,0,0,0-.313,1.876c.623.312,1.869,0,2.806,0,0-1.25.311-2.811-.313-3.748m12.162-37.8c0-.312-.625-.312-.938,0,0,.626.313,1.562,0,1.875H275.04c-.313,0-.936,1.247-.313,1.561a8.456,8.456,0,0,0,2.808,0c0-1.249.622-2.5-.311-3.436m-102.262,36.55c-.312-.312-.623-.312-.933.311,0,.313.31,1.25,0,1.563s-1.249,0-1.249,0c-.623.313-1.246,1.248-.313,1.874h2.806c0-1.561.312-2.811-.311-3.748m-.933,6.561c-1.249,0-2.187-.314-3.12-.314.31-.937-.938-1.875-1.249-1.249a9.12,9.12,0,0,0-.31,5h.934c-.313-.624,0-.937,0-1.248a15.148,15.148,0,0,0,3.745-.313c.31-.312.31-1.248.31-2.187a.306.306,0,0,1-.31.314m-4.992,10.308c0-1.25-.309-2.5-1.556-1.876,0-1.249.31-2.5-.316-2.81-.931-.313-2.179,0-3.426,0-.936-.313-.936-1.563-.936-2.188.311-.624,1.247,0,1.557-.311.936-1.874-.31-4.062,0-5.936h-.621a1.987,1.987,0,0,1,0-1.874c.311-.313.931.313,1.247,0a1.978,1.978,0,0,0,0-1.874c-.316-.312-.936.311-1.56,0v-1.25h-1.872c2.5,0,0,5.622.313,8.436h-.935a31.759,31.759,0,0,0-.623,7.807h1.245c-.312-1.249.625-1.873,1.249-1.249s1.247,2.187.311,2.811c-.311.625-1.56,0-2.182.314-.312.311-.623.936-.312,1.25.622.311,1.247.311,1.559.936s.935,0,1.247.313c.313.625.313,1.25.624,1.561a2.438,2.438,0,0,0,2.493.312V540.6c0-.625.622-.625,1.248-.625,1.246-1.251,1.246-2.813,1.246-4.688Zm-14.652-11.871c.311-.626,1.558-.314,1.558,0,.625.624.313,1.874.313,2.5,1.245-.311,2.807.937,1.559,1.561a3.781,3.781,0,0,1-4.055.313c-.621-.313.313-.937,1.248-1.249.311-.312,0-.936-.623-1.561a1.4,1.4,0,0,1,0-1.563M221.948,541.9h-1.907a49.245,49.245,0,0,0-1.274,9.568c5.093,1.276,2.547-6.378,3.181-9.568m44.673,12.448h-.935a23.739,23.739,0,0,0-.311,4.685c2.495.625,1.246-3.123,1.246-4.685m-37.412-35.612h-.933a27.2,27.2,0,0,0-.624,5c2.493.312,1.247-3.437,1.557-5m-22.446-50.606h-1.246c0,1.559-.314,3.123-.314,4.685,2.494.626,1.247-3.126,1.56-4.685m-14.965-6.56c-1.247,0-3.742-.625-3.118,1.874a2.347,2.347,0,0,0-1.561.311V465a6.022,6.022,0,0,0,4.056,0c.623-.623-.624-2.5.623-3.435m-24.317,9.369h-.938v.939c-1.873-.313-2.493.937-2.182,2.5h1.25c-.315-.624,0-.936.623-1.248.309-.314,1.247.312,1.557,0a1.924,1.924,0,0,0-.31-2.19m101.012,91.531c-2.494-.938-2.184,2.811-1.559,3.748,1.247,1.25.936-2.5,1.559-3.748m-26.008-36.211c-3.646-.912-3.646,4.566-2.277,5.478,1.821,1.827.909-3.194,2.277-5.478m-66.9-53.756c-2.805-.625-2.5,2.811-1.556,3.748,1.244,1.25.621-2.5,1.556-3.748m-6.548-2.814c1.247-.623,4.053-.311,2.8,1.25-.308.626-1.558.626-2.492.314-.313-.314-.935-1.25-.313-1.564m4.366-3.434c1.247-.624,4.053-.312,2.806,1.25-.312.625-1.87.625-2.495.312s-.934-1.25-.311-1.562m-18.084,17.181c0-.624-.934-.624-1.246-.312s-.312,1.249,0,1.249c.935.938,1.558,0,1.246-.937m26.189,17.181h-.933a9.642,9.642,0,0,0-.938,5.936h.938c-.623-1.876,1.248-.937,1.868-1.563.625-.936-.62-1.248-.935-2.186-.312-.623.315-1.561,0-2.187m-11.224,1.564h-.934c.621-1.564-1.244-1.876-1.559-.938a1.506,1.506,0,0,0,0,2.185,2.837,2.837,0,0,0,3.743.314c.623-.314,0-1.25-1.25-1.561m-6.545-34.988c-.313-.626-1.56-.313-1.56-.313-.312-1.563-.312-2.811-1.559-3.436h-1.872c0,.938.315,2.187-.623,2.5-.933.624-2.182.312-3.429.312,0,.625,0,.625-.311.938-.624,0-1.246,0-1.56.937V470c.936.313,1.56-.625,1.871-.937,3.119-1.249,7.483,1.25,9.354-2.186a.306.306,0,0,1-.311.313m77.006-11.871c-.936-.311-2.494-.311-2.806.312-1.244,1.875,1.87,1.249,3.118,1.249,0-.312.312-1.249-.312-1.561m-7.486,1.561a3.9,3.9,0,0,0-2.8.312c-1.248,1.875,1.869,1.25,3.117,1.25,0-.311.313-1.25-.315-1.562M225.78,485c-.935-.625-2.494-.312-2.8.313-1.247,1.874,1.869.937,3.116,1.247,0-.622.311-1.247-.312-1.56m108.495,65.288c-.933-.623-2.493-.311-2.8.313-1.246,1.876,1.872.937,3.118,1.25,0-.624.31-1.25-.313-1.563m-87.606,6.561a3.621,3.621,0,0,0-3.12,0c-1.246,1.874,2.185,1.251,3.432,1.562,0-.624.312-1.562-.312-1.562m-111.3-76.222c-.935-.312-2.5-.312-3.117.311-1.248,1.876,1.869.938,3.117,1.25,0-.312.31-1.25,0-1.561m5.3-3.437c-.313-.312-.626,0-1.247-.312,0,.938-.315,1.562,0,2.188.309.311.934,0,1.557,0-.31-.626.311-1.25-.31-1.876m-2.81-9.683c-2.181-.625-2.491.936-1.556,2.5,0,.313.934,0,1.556,0,0-.937.623-2.186,0-2.5m4.367.936c-1.557-.936-1.87,2.187-.936,2.812,1.561,1.25,1.561-2.187.936-2.812m4.675-7.808c-.309,0-1.248-.313-1.558,0v.937c.31.312,1.249,0,1.87,0ZM145.343,465v1.875c-1.246-.313-2.808.313-3.117-.625a6.1,6.1,0,0,1-.312-4.061,1.086,1.086,0,0,1,1.56-.312c.623.936.31,2.187.31,3.123.313,0,.938.312,1.559,0m0,6.873c-.313-.625-1.246-.313-1.246,0-.623,1.251.31,2.81,1.556,1.563.315,0,.315-1.25-.31-1.563m-1.246,4.06c-.313-.312-1.246-.312-1.246,0a4.443,4.443,0,0,0-.316,3.437h.626c-.31,1.561.936,1.561,2.182.938v-1.249c-.936.311-1.246-.313-1.246-.626Zm1.556,8.124c-.931-1.562-2.8-.626-4.051-.938v1.249c1.249-.311,2.495.625,4.051-.311m-1.556,2.81c-.623-.624-1.246-.314-1.871,0-.312,0,0,.625,0,1.25h.625c-.316,1.25,0,2.5,1.556,2.188v-.938c.623-.314.936-.625,1.561-.314v.626a2.052,2.052,0,0,0,1.869.313v-1.563c-.312-.312-1.245,0-1.245,0-.314-.312,0-1.562,0-1.562a1.974,1.974,0,0,0-1.87,0c-.315,0,.308.937,0,1.562H144.1a2.434,2.434,0,0,1,0-1.562m-4.675,1.875c-.94-.938-2.809-.313-4.679-.313v.938c-.623,0-1.247,0-1.559.625v1.249a6.837,6.837,0,0,0,4.366.312v-.936c1.557.624,2.806-.938,1.872-1.875m3.113,18.119c-1.245,0-.933.937-1.556,1.25-1.557.311-2.183.937-1.872,2.186h1.249s.623-.313.313-.625c2.182.625,1.245-1.25,1.866-2.811m-12.156,2.5a1.462,1.462,0,0,0-1.87-.312,1.411,1.411,0,0,0,0,1.561,1.991,1.991,0,0,0,1.87,0Zm-19.018,17.182c0-2.189-2.493-.939-3.742-1.563.309.936,1.249,2.188.937,3.436h-.628c0-.624.316-1.248,0-1.248-.309-.625-1.244-.94-1.556-.625a2.677,2.677,0,0,0,0,2.186c.312,0,.624.624.935.624,1.561.938,3.428,1.249,4.054-.624h.625v.937c1.245-.313.622,1.874,1.868,2.186,2.493.313,1.246-3.123.313-4.684-.313-.625-1.871,0-2.806,0Zm-17.774-.939c0-.624-.622-.312-.309-.624-.623,0-1.872-.314-2.181.312-.314,0-.314,1.251,0,1.251.934.625,1.868.311,2.49-.939m8.733-8.748c-1.559-.622-3.431-.311-2.183,1.564,0,.312.936,0,1.559,0,0-.938,0-.314.31-1.25Zm-.937,10.623h-.31a1.93,1.93,0,0,0-.312,2.187c.622.625,2.184.625,3.117.311,0-.311.312-1.248,0-1.248-.31-.313-1.248,0-1.872,0a1.631,1.631,0,0,1-.623-1.25m-6.858-9.373H93.9a2.649,2.649,0,0,0,0,2.187,5.272,5.272,0,0,0,3.12,0s.309-.937,0-1.25c-.625-.311-1.249.313-1.872,0-.314-.311-.936-.311-.625-.937M91.406,520.3a1.99,1.99,0,0,0-1.87,0c-.31,0-.31,1.25,0,1.563a1.979,1.979,0,0,0,1.87,0Zm-7.482-4.059c-.935-.625-2.183-.938-2.493,0-1.246,1.56,1.558,1.248,2.805,1.248,0-.312.311-.937-.312-1.248m29.93-.625c-1.868,0-1.868-1.252-1.558-2.813h.623c.312-.624,0-1.25,0-2.186,0-.312.935-.312.935-.625,1.246.313,4.055-.936,3.742,1.561.623,0,1.246-.312,1.246,0a3,3,0,0,1,.937,3.125h-.625c.313,1.25-.312,2.5-1.245,1.563-.623-.938-.937-3.125-1.872-2.5s0,2.187-.314,3.436h-.932c-.312,0,.309-.936,0-1.249-.312,0-.624-.312-.937-.312M87.979,530.294c-.624-.938-1.559.624-.935,1.249.935.939,1.559-.938.935-1.249m42.4-49.359c-.935-.935-1.87.938-1.246,1.25,1.246,1.25,1.556-.624,1.246-1.25m7.171-5.31c-.937-.624-1.872.938-.937,1.25.937,1.25,1.246-.625.937-1.25M179.013,465c-.934-.623-1.868.938-.934,1.562.934.938,1.249-.936.934-1.562m3.43-3.123c-.935-.937-1.868.624-.935,1.249.935.938,1.56-.937.935-1.249m.313,5.935c-.933-.937-1.871.624-.933,1.249.933,1.25,1.245-.625.933-1.249m32.976,92.061c-.618-.732-1.465.74-.864,1.342.3.4.562.478.767.385a26.173,26.173,0,0,0,.838,6.746c.963,3.859,6.741,2.411,10.111,1.932,1.446,0,2.407-1.932,1.924-3.86,4.335-.965,9.15.481,13.961-.483.486,0,0-1.447,0-2.413.486-.481,1.93.483,1.93-.481a4.611,4.611,0,0,1,.96-3.378h-8.182c0,.965,1.442,2.894.481,3.859a3.024,3.024,0,0,1-2.89,0c-1.444-1.929-4.332-1.929-6.738-1.929v1.448c-.965.481-2.409.481-2.409,1.447,0,3.375-1.927,6.754-4.335,4.343-.96-.968,0-4.343,0-6.756,2.89.482,3.852-3.376,2.408-5.306,0-.482-1.442,0-2.408,0v-.965c1.928-.482,3.852-2.411,1.928-3.378a2.872,2.872,0,0,0-3.372,0,21.179,21.179,0,0,0-.478,2.414c-.967,0-2.41-.482-2.41,0a18.6,18.6,0,0,0-1.222,5.033M237,572.465c-.934-.625-1.873.937-1.248,1.562,1.248.938,1.562-.937,1.248-1.562m-8.728-.937c-.939-.937-1.873.937-1.249,1.25,1.249,1.249,1.558-.626,1.249-1.25m-12.785,13.12c-.623-.938-1.556.938-.933,1.25.933,1.25,1.557-.626.933-1.25m1.561-10.309c-.626-.624-1.561.938-.937,1.249.937,1.251,1.559-.623.937-1.249m1.869-2.187c-.624-.936-1.559.938-.937,1.25.937,1.25,1.562-.624.937-1.25M202.4,575.588c-.934-.623-1.871.939-.934,1.563.934.936,1.557-.936.934-1.563m9.977-12.181c-.623-.938-1.559.624-.936,1.249.936.936,1.558-.938.936-1.249m-11.535-20.931c-.622-.626-1.558.937-.936,1.562.936.938,1.56-.938.936-1.562m-12.469,3.437c-.624-.625-1.563.937-.939,1.248.939,1.252,1.56-.623.939-1.248m-2.81-17.181c-.621-.937-1.557.624-.934,1.248.934.938,1.558-.937.934-1.248M226.4,449.7c-.934-.937-1.871.624-.934,1.248.934.938,1.559-.936.934-1.248m14.342,9.058c-.936-.623-1.87.938-1.247,1.25,1.247,1.249,1.559-.624,1.247-1.25m-7.171-5c-.623-.626-1.56.938-.936,1.251.936,1.249,1.56-.627.936-1.251m18.706,5c-.623-.623-1.559.938-.935,1.25.935,1.249,1.559-.624.935-1.25m-6.546-6.872c-.936-.938-1.87.626-1.245,1.249,1.245.938,1.557-.937,1.245-1.249m4.363,10.621c-.935-.936-1.871.938-.935,1.249.935,1.25,1.559-.624.935-1.249m-1.557-2.811c-.937-.625-1.871.938-.937,1.561.937.938,1.246-.936.937-1.561m-2.806,1.875c-.622-.937-1.56.624-.936,1.249.936.936,1.558-.937.936-1.249M273.481,487.5c-.934-.939-1.872.937-1.249,1.25,1.249,1.25,1.561-.625,1.249-1.25m-1.249-3.435c-.623-.626-1.554.936-.933,1.249.933,1.247,1.558-.625.933-1.249m19.642,14.682c-.933-.938-1.867.623-.933,1.249.933.936,1.245-.938.933-1.249m2.184,24.052c-.937-.935-1.872.938-.937,1.25.937,1.25,1.56-.624.937-1.25m33.361-3.749c-.625-.623-1.562.939-.937,1.25.937,1.25,1.56-.623.937-1.25M321.8,517.8c-.934-.938-1.872.626-.934,1.249.934.939,1.558-.937.934-1.249m-3.429-1.56c-.935-.937-1.871.622-.935,1.248.935.938,1.247-.937.935-1.248m-2.181-4.062c-.938-.626-1.871.937-1.247,1.562,1.246.937,1.557-.938,1.247-1.562m8.73,42.8c-.939-.939-1.873.623-1.249,1.248,1.249.937,1.557-.625,1.249-1.248m6.545-9.373c-.623-.624-1.558.938-.935,1.561.935.938,1.559-.935.935-1.561m-6.857-5c-.937-.625-1.872.935-.937,1.561.937.936,1.249-.938.937-1.561m-12.784-.625c-.936-.937-1.87.625-.936,1.248.936.938,1.244-.623.936-1.248m-18.392-12.807c-.624-.939-1.563.624-.939,1.248.939.937,1.56-.937.939-1.248m.621-15c-.937-.626-1.872.937-.937,1.562.937.937,1.56-.938.937-1.562m-6.861,0c-.622-.626-1.555.937-.934,1.562.934.937,1.56-.938.934-1.562m-2.8-15.306c-.94-.625-1.872.936-.94,1.561.94.936,1.249-.937.94-1.561m12.469-1.563c-.937-.625-1.872.938-.937,1.563.937.936,1.247-.938.937-1.563m-3.743-3.749c-.935-.936-1.87.626-.935,1.249.935.937,1.251-.936.935-1.249m-8.726-4.061c-.94-.939-1.872.937-.94,1.25.94,1.25,1.249-.625.94-1.25m-14.657-4.685c-.624-.938-1.557.624-.932,1.25.932,1.249,1.557-.626.932-1.25m-3.117,1.25c-.935-.626-1.869.936-.935,1.249.935,1.247,1.56-.625.935-1.249m-9.353,9.995c-.623-.625-1.558.937-.933,1.25.933,1.249,1.556-.625.933-1.25m-1.248-4.373c-.621-.937-1.556.626-.933,1.25.933.937,1.558-.624.933-1.25m-6.547,10c-.624-.937-1.556.624-.933,1.248.933.938,1.557-.624.933-1.248m-.624,44.358c-.932-.625-1.868.938-.932,1.562.512.516.932.18,1.1-.33a4.817,4.817,0,0,1,.1,2.415h-1.365a9.1,9.1,0,0,0,.455,5.934,2.186,2.186,0,0,0,1.821,0c.456,0,0-1.368.456-1.824h.456v-2.283c.458.456.91-.458,1.367-.458-.457-2.739.454-.913-.457-3.651v-2.282l-.452.912c-.914,0-1.829-.454-2.281,0q-.051.166-.087.321a.736.736,0,0,0-.187-.316m31.492,39.672c-.937-.935-1.87.626-.937,1.25.937.938,1.558-.938.937-1.25m5.611-8.122c-.933-.623-1.872.939-1.248,1.563,1.248.936,1.559-.936,1.248-1.563m6.234-5c-.935-.625-1.868.937-1.245,1.561,1.245.938,1.557-.936,1.245-1.561m-16.21,1.874c-.936-.625-1.872.937-1.249,1.562,1.249.938,1.559-.937,1.249-1.562m7.479-2.811c-.932-.937-1.868.937-1.243,1.25,1.243,1.248,1.557-.625,1.243-1.25m3.432-.313c-.935-.624-1.868.938-.935,1.25.935,1.249,1.245-.625.935-1.25m-8.416-10.933c-.936-.938-1.872.624-1.247,1.249,1.247.938,1.557-.625,1.247-1.249m-14.033,7.809c-.934-.937-1.869.936-1.246,1.25,1.246,1.25,1.56-.625,1.246-1.25m-2.179-9.371c-.625-.937-1.561.624-.938,1.251.938.935,1.561-.939.938-1.251M245.734,545.6c-.622-.624-1.56.938-.936,1.561.936.938,1.558-.935.936-1.561m-12.268-5.91c-.909-1.369-2.277.913-1.365,1.825,1.365,1.369,2.277-.912,1.365-1.825m9.4-.689c-1.368-.913-2.733,1.37-1.368,1.826,1.368,1.826,2.279-.912,1.368-1.826m29.057.664c-.934-.938-1.867.938-.934,1.249.934,1.25,1.246-.623.934-1.249m3.744-3.437c-.937-.624-1.871.937-1.248,1.562,1.248.937,1.56-.936,1.248-1.562m-29.93-14.056c-.936-.937-1.87.623-1.246,1.248,1.246.937,1.558-.936,1.246-1.248m-10.913,5.935c-.623-.936-1.562.625-.934,1.249.934,1.249,1.559-.624.934-1.249m-10.289-14.056c-.936-.627-1.869.935-1.246,1.249,1.246,1.248,1.559-.626,1.246-1.249m-5.923-20.308c-.625-.937-1.87.625-.935,1.25.935.938,1.56-.937.935-1.25m38.349-22.179c-.623-.936-1.559.626-.938,1.25.938,1.25,1.561-.624.938-1.25m-12.784-4.685c-.934-.937-1.871.625-.934,1.25.934.936,1.249-.937.934-1.25M225.78,468.44c-.623-.936-1.56.625-.935,1.248.935.94,1.558-.935.935-1.248m7.479,1.248c-.621-.935-1.555.627-.933,1.25.933.94,1.561-.623.933-1.25M203.643,485.31c-.934-.938-1.872.625-.934,1.247.934.939,1.559-.935.934-1.247m.315-8.123c-.938-.624-1.871.938-.938,1.251.938,1.248,1.248-.625.938-1.251m-.626-6.249c-.623-.936-1.561.94-.935,1.252.935,1.25,1.561-.626.935-1.252m-.935-10.619c-.934-.937-1.871.625-.934,1.25.934.936,1.246-.937.934-1.25m-6.856,26.865c-.624-.627-1.562.937-.939,1.249.939,1.25,1.56-.625.939-1.249m4.985,2.5c-.623-.937-1.558.626-.933,1.25.933.937,1.555-.624.933-1.25m1.561,23.741c-.624-.937-1.561.627-.939,1.25.939.938,1.561-.937.939-1.25m-14.656,10.309c-.934-.938-1.871.624-.934,1.25.934.936,1.559-.938.934-1.25m-9.04-3.748c-.623-.939-1.559.624-.935,1.25.935.937,1.557-.939.935-1.25m-19.952,11.558c-.624-.938-1.871.625-.938,1.25.938.936,1.562-.625.938-1.25m9.352-7.81c-.626-.938-1.557.624-.937,1.25.937.936,1.561-.938.937-1.25m-9.976-3.124c-.623-.624-1.559.937-.935,1.563.935.935,1.559-.937.935-1.563m5.611-6.872c-.623-.625-1.872.937-.935,1.562.935.938,1.559-.939.935-1.562m-5.3.937c-.624-.937-1.557.625-.933,1.25.933,1.249,1.556-.625.933-1.25m1.562-3.437c-.624-.936-1.872.938-.939,1.25.939,1.25,1.561-.625.939-1.25m6.547-5.935c-.938-.936-1.874.624-.938,1.25.938.936,1.247-.937.938-1.25m-1.564-8.434c-.62-.937-1.867.625-.931,1.249.931.937,1.557-.935.931-1.249m1.25-28.739c-.624-.937-1.87.624-.934,1.248.934.938,1.557-.937.934-1.248m-13.1,11.245c-.933-.624-1.871.938-.933,1.561.933.938,1.556-.935.933-1.561m-.623-3.749c-.934-.624-1.869.938-.934,1.25.934,1.25,1.557-.625.934-1.25m-12.78,52.794c-.626-.937-1.563.624-.94,1.25.94.936,1.561-.937.94-1.25m-14.032-3.124c-.625-.938-1.557.624-.934,1.251.934.936,1.557-.939.934-1.251m-8.418.312c-.625-.938-1.872.625-.935,1.25.935.938,1.559-.938.935-1.25m-15.276-.938c-.623-.936-1.559.938-.935,1.25.935,1.252,1.559-.624.935-1.25m8.418-10.932c-.623-.625-1.558.937-.936,1.562.936.938,1.557-.939.936-1.562M107,512.8c0-.624-1.559-.312-2.184-.312v1.25c.938.314,2.5.314,2.184-.938m-4.051-12.183H101.7a6.715,6.715,0,0,0,0,2.5c-1.246-.313-2.807.311-1.559,1.873.313.626,2.808,0,3.741.313,0,.936-1.248-.936-1.248-4.374a.307.307,0,0,1,.315-.312m-7.795-.624c-.625,0,0-.312-.314,0-.934.312-.934,1.874-.934,2.811.312,0,1.248.313,1.248,0,.623-.937,1.247-1.561.933-2.5Zm12.469-1.875c-.312-.312-1.247-.312-1.247,0-1.871,2.187-1.56,5.624-1.247,8.121,0,.314,1.871.627,2.182,0,.621-.936.312-1.562-.623-2.5a2.043,2.043,0,0,1,.623-2.5,2.821,2.821,0,0,0,.312-3.125m-1.247-3.124c-.935-1.25-1.871.625-1.247,1.875h1.247a1.969,1.969,0,0,0,0-1.875m177.746,9.522c.248-.653.711-1.074.521-1.744-.211-.231-1.093-.268-1.744-.517.48-.863.943-1.286.748-1.957a2.158,2.158,0,0,0-1.3-.5c-.924.845-1.423,2.146-.582,3.067-.02.44,1.094.267,1.3.5-.022.44-.714,1.074-.5,1.3s.635.69,1.073.708c.463-.421.252-.65.483-.862M260.8,526.7l.417.458c-.269,1.094-1.4,1.707-2.32,2.551-.211-.231-.635-.69-.635-.69.921-.844,2.057-1.458,2.538-2.319m-12.44-13.129c-.382-1.342-1.856-2.952-3.407-2.8-1.094-.266-1.825,1.248-2.744,2.093,1.513.727.147,1.552.089,2.874.211.23.188.671.4.9-.44-.02-.479.862-.269,1.093a6.071,6.071,0,0,0,2.5,3.2c.235-.211.695-.633.695-.633-2.316-2.529,2.153-3.661,3.133-5.828a2.394,2.394,0,0,1-.4-.9M252.238,502c-.193-.361-.4-.67-.9-.446-.9.4-2.454.557-2.744,2.092-.022.439,1.513.724.82,1.359-.478.862.151,1.553.111,2.434a1.555,1.555,0,0,0-.48.864c.211.23.4.9.84.919.566-.161.831-.648,1.313-1.175.847.194,1.04-1.224.77-1.491a.839.839,0,0,0-.627-.291,2.62,2.62,0,0,0,.3-1.6c-.155-.549.573-1.059,1.219-1.571.781.61,1.234-.969.672-1.531-.578-.577-1.152-.089-1.291.442m26.1-1.486s-.21-.228-.42-.46a1.933,1.933,0,0,0-2.034,1.016s.208.23.421.461c-1.152,1.053-2.767,2.53-1.021,3.046.88.041,2.033-1.016,2.744-2.089,0,0-.212-.23-.42-.459.042-.882.919-.845.73-1.515m-.052-3.758c-1.219-2.261-3.146,1.189-4.507,2.015.21.231.42.459.42.459a9.555,9.555,0,0,1,4.321-2.686Zm-5.23-1.551.691-.634c-1.513-.726-.15-1.551.353-2.855.017-.441-.633-.69-1.055-1.149-1.4,1.706-2.824,3.853-5.07,4.639a2.42,2.42,0,0,0-1.051-1.151c-.233.212-.922.844-1.384,1.266.423.461,1.514.729,1.474,1.611-.229.211-.691.632-.923.842.19.672,1.493,1.17,1.242,1.822-.039.882-1.571.594-2.241.786-.906.4-.943,1.285-1.844,1.688-.209-.23-.4-.9-.842-.92s-.692.632-1.154,1.054c.443.019.192.671.192.671-.48.864-1.825,1.246-2.324,2.55l.839.919c-2.746,2.091-1.52,4.352.4,5.981,1.61-1.477,3.244-3.393,5.277-4.409,1.8-.8,1.875,2.511,3.87,2.376a4.965,4.965,0,0,0,3.247-3.393c.249-.653.48-.864.288-1.534.021-.44-1.068-.71-1.051-1.15-.09-2.876-2.235-4.292-2.786-6.748.228-.212.459-.422.69-.633a2.015,2.015,0,0,0,3.78-.5c.016-.441-.636-.689-.614-1.13m-14.7,17.255c.041-.881-1.74-.518-1.779.365-.063,1.321,1.74.519,1.779-.365M247.4,505.577c.041-.882-1.743-.517-1.551.153-.294,1.534,1.511.728,1.551-.153m33.228-11.816c.269-1.092-1.514-.727-1.553.154-.062,1.323,1.742.518,1.553-.154m-17.5-3.849c.028-.612-.337-.862-.722-.845a1.249,1.249,0,0,0-.148-1.259c-.625-.937-1.561.625-.938,1.249a1.193,1.193,0,0,0,.4.371.855.855,0,0,0-.147.639c-.059,1.323,1.744.517,1.552-.155M117.99,519.948c-.2.669-.632,1.122-.394,1.776.228.215,1.11.19,1.777.389-.413.9-.844,1.351-.608,2.006a2.169,2.169,0,0,0,1.337.4c.859-.909,1.263-2.245.357-3.1-.015-.441-1.109-.185-1.339-.4-.01-.442.634-1.123.407-1.339a1.863,1.863,0,0,0-1.122-.627c-.429.455-.2.668-.415.9m21.626-23.83s-.225-.217-.456-.429c.191-1.11,1.276-1.8,2.132-2.712.229.212.683.642.683.642-.857.908-1.944,1.6-2.359,2.5m5.47-1.711c-.212.228-.641.681-.858.909.454.429.909.855,1.364,1.284l.641-.683c.668.2.919,1.3,2.028,1.484a.967.967,0,0,0,.529-.207c.489.319.838-.235.855-.8l.129-.135c-.213.225.229.213.453.426a1.42,1.42,0,0,0,1.073-1.135c-.015-.441-.453-.428-.907-.856-.428.455-.763.808-1.073.866a.408.408,0,0,0-.345-.07.817.817,0,0,1-.108-.088c-1.134-1.068-3.174-3-4.661-.963Zm-1.59,6.229c-.215.227-.428.455-.428.455.453.428,1.133,1.07,1.361,1.284.213-.229.643-.682.859-.909.892.415,1.156,1.953,2.253,1.7.227.214.415-.9.858-.911a1.553,1.553,0,0,1,.738.685c-.284.394-.368.956-.052,1.114,1.124,1.125,1.487-.283,1.322-1.03.21-.282.424-.619.635-.846-1.118-.63-.251-1.1.169-1.992-.015-.444-.68-.644-.908-.857-1.691,2.7-3.755-.108-5.532-.5-.669-.2-1.753.494-2.384,1.617,0,0,.225.214.454.429a1.1,1.1,0,0,0,.655-.242m14.943,4.227-.035-.037.031,0Zm-5.457,3.435a4.192,4.192,0,0,0,2.761,2.523,2.317,2.317,0,0,0,.2.416c.489.491.692.212.811-.38,1.007.011,1.6-1.44,2.417-2.3-1.445-.571-.44-1.4-.311-2.573a1.4,1.4,0,0,0,.2.256c1.246,1.25.624-2.5,1.246-3.747a1.341,1.341,0,0,0-1.837.929,6.233,6.233,0,0,0-2.61-2.715l-.645.683c2.5,2.354-1.879,3.81-2.7,6.042a2.344,2.344,0,0,1,.467.868m-3.123,11.655c.26.407.476.853,1.036.551.275-.146.611-.274.953-.425.882.416.406,1.518.977,2.093h.936c0-.313-.313-1.25.312-1.25,1.87-.626,2.183-2.187,1.87-3.749a1.087,1.087,0,0,0-.624-.314c-1.558,0-.311,1.564-1.246,1.876a1.442,1.442,0,0,1-.955.44,1.926,1.926,0,0,0,.365-.955c-.014-.441-1.563-.617-.919-1.3.414-.9-.265-1.536-.291-2.418a1.542,1.542,0,0,0,.418-.9c-.229-.213-.467-.869-.908-.855-.655.239-.856.908-1.5,1.591.452.427.68.64.465.867a5.572,5.572,0,0,0-.446,1.919,1.361,1.361,0,0,0-.906.357,2.626,2.626,0,0,0-.192,1.659c-.114.106-.225.212-.324.317l.4-.012a.537.537,0,0,0,.121.224.544.544,0,0,0,.462.28m-25.811,3.565s.229.213.454.428a1.936,1.936,0,0,0,1.955-1.162s-.227-.213-.453-.428a8.377,8.377,0,0,0,1.494-1.9c.118.168.222.34.324.521a3.148,3.148,0,0,0-1.237,1.6c.322.247,1.28.991,1.922,1.485.493-.641.593-2.092,1.729-2.235.319.248.962.742,1.278.989.814-.389,1.163-2.161,2.053-1.986,1.132-.144,1.1,1.875,1.495,2.692.713,1.062,1.847.917,2.561,1.978-.249.321-1.061.71-.989,1.279s.959.742,1.6,1.239c-.07-.57.814-.393.814-.393,1.208.424,2,2.052,3.768,2.4l.987-1.279c3.272,3.044,5.89.985,7.547-1.817-.636-.493-1.319-.979-2.01-1.478a.655.655,0,0,0,.059-.155c.623-1.562.935-1.25,1.557-2.188.314-.623-.934-1.248-1.869-.935v.935a5.292,5.292,0,0,1-2.371.32,13.933,13.933,0,0,1-2.158-2.265,1.5,1.5,0,0,1,.271-2.049c.421.188.718-.274.762-.779.723-.718,1.421-1.506,1.148-2.633a6.42,6.42,0,0,0-5.05-3.395c-.884-.176-1.2-.423-2.019-.032-.566.073-.669,1.526-1.234,1.6-3.652.751-4.985,3.8-8,5.046-.32-.249-.642-.5-.96-.743,2.052-1.988.871-4.432-1.469-4.712-.568.072-.742.959-1.307,1.029-.319-.247-.641-.493-.962-.742-.37,1.3-1.032,1.19-1.906.837v-2.41a3,3,0,0,0-2.807-1.874v1.248h.311a5.437,5.437,0,0,1,.679,2.38c-.566.075-.739.959-1.236,1.6,1.9,1.082,4.138,2.121,5.753,3.755a4.719,4.719,0,0,0-2.319,2.246l.452.428c.026.883-.856.909-.618,1.563m.328,3.744c1.384,2.166,3.052-1.417,4.348-2.34-.225-.213-.454-.426-.454-.426a9.552,9.552,0,0,1-4.109,2.994Zm24.7-40.26c-.172,1.016,1.282.686,1.508-.055-.059,1.921.063,3.794.063,5.547,1.247-.311,4.051.937,3.428-1.561-.934.312-1.248-.312-1.558-.624-.313-.626-.313-1.876,0-1.876.933-.625,2.181-.312,3.116-.312,0-.313.312-.937.312-1.25-.935,0-2.495.625-3.118,0-.623-.936.314-2.5-.31-3.436h-1.561a20.562,20.562,0,0,0-.356,3.136c-.176-1.077-1.753-.2-1.524.431m-5.973,23.14c.022.882,1.778.388,1.751-.5-.036-1.323-1.778-.387-1.751.5M154.53,516.2c.022.882,1.776.388,1.537-.268.177-1.55-1.563-.615-1.537.268m-32.275,14.215c-.19,1.109,1.564.616,1.54-.267-.038-1.323-1.779-.387-1.54.267m17.734,2.558c.036,1.324,1.789.828,1.537-.267-.035-1.324-1.777-.388-1.537.267m22.8-50.789c-.127.172-.249.346-.367.518a2.037,2.037,0,0,0,.067-.518Zm24.239,15.158c-2.214-1.661-4.058-3.046-6.271-4.709-.557.738-.559,3.051-1.851,3.235-1.016-.182-2.124-1.015-2.216-1.662,0-2.309-2.211-3.97-4.056-5.353l-.828,1.109c-1.016-.186-2.124-1.016-2.68-.276-1.943,2.588-5.36,4.068-5.821.833-.179-1.292,2.5-3.326,3.886-5.174,1.7,1.784,4.192.147,4.776-1.843a1.456,1.456,0,0,0,.12-.726l0-.112c.089-.119.006-.246-.167-.383a.5.5,0,0,0-.082-.1.458.458,0,0,0-.291-.145,13.519,13.519,0,0,1-1.306-.76l.554-.74c1.754.737,4.342.368,3.419-1.481a2.745,2.745,0,0,0-2.583-1.939c-.277.371-1.2.833-1.754,1.574-.741-.555-1.57-1.756-1.846-1.385a17.956,17.956,0,0,0-4.391,3.79,2.283,2.283,0,0,0-.218-.787c-.623-.312-1.559,0-1.247-1.562-.937,0-2.182-.313-2.806.313-.31.937-.31,1.561.936,2.5.311,0,.311.938,0,1.25-.936.624-1.87.936-1.561,2.5-.623,0-.933.625-1.247.312,0,.625-.309,1.249,0,1.249,1.247.937,2.808.313,2.5-1.561v1.561c.623-1.249.312-2.5,1.87-3.436a.269.269,0,0,0,.081-.015,27.268,27.268,0,0,0-2.051,3.964c-1.481,3.509,3.778,5.726,6.641,7.293,1.106.831,2.954-.094,3.694-1.85,3.876,1.752,6.735,5.63,10.977,7.662.372.275.834-1.112,1.391-1.851.645-.093,1.2,1.478,1.749.738a4.409,4.409,0,0,1,2.681-2.033m-4.494-26.256c-.382-1.342-1.856-2.952-3.409-2.8-1.092-.265-1.824,1.248-2.744,2.093,1.512.728.148,1.552.09,2.874.211.23.189.671.4.9-.439-.02-.48.862-.27,1.093a6.087,6.087,0,0,0,2.507,3.2l.691-.633c-2.316-2.529,2.154-3.661,3.134-5.827a2.471,2.471,0,0,1-.4-.9m47.321,24.136a1.43,1.43,0,0,0,2.1-.042l.059.125h1.245a7.829,7.829,0,0,0,.015-2.787l.139-.466-.041-.012c.652-.729,1.8-.171,2.384-.171a6.688,6.688,0,0,0,0-2.5h-3.742c.269,1.874-.613,1.913-1.85,2.279a2.031,2.031,0,0,0-.818-.161A1.137,1.137,0,0,0,228.3,492.8c.34.319.8.239,1.219.292v.022a1.283,1.283,0,0,0,.46.132.761.761,0,0,1,.117.09c.121.688-.957,1.016-.241,1.883m6.383,20.124c.6.179.358-1.2.925-2-2.187-.326-1.562-2.419-1.113-3.913l-.3-.089c-.242-1.372.89-2.987-.994-3.223a.683.683,0,0,1-.567.806c-1.075.33-2.784-.507-2.93,1.078l-.9-.269c-.568.808.029.985.452,1.762.212.389-.18.6-.356,1.194.087-.3-.389.211-.69.122a3.206,3.206,0,0,1-.167.36,1.006,1.006,0,0,0-.081-.25c-.936-.936-1.869.938-1.245,1.251.767.768,1.18.353,1.31-.223a1.147,1.147,0,0,0,.125.146,26.592,26.592,0,0,1,6.529,3.249m1.239-10.692c1.4.745,2.872.206,1.94-1.048s-5.955-.8-4.256-3.221c.092-.3,1.409.743,2.1.625a1.417,1.417,0,0,0,.447-1.494c-.212-.389-.9-.267-1.5-.447.57-.808.027-2.271,1.194-2.9.386-.209.9.269,1.285.059.087-.3.266-.9.266-.9a2.452,2.452,0,0,1-.358-.139,6.521,6.521,0,0,1,1.213.111c0-.625.312-1.563-.311-1.563a3.6,3.6,0,0,0-3.029-.041c-.12-.563-.977-.955-1.048-.725-1.343,1.225-.681,3.376-1.129,4.87-.509-.478-1.229-1.344-2.005-.924-1.165.628-.624,2.091-1.281,3.2,1.2.358.631,1.165,1.349,2.031,1.229,1.342,3.505,1.37,5.124,2.505m9.533-4.637c.357-1.2-1.229-1.342-2.127-1.612l-.007-.012a15.12,15.12,0,0,1,2.415.036c0-.625.31-1.248,0-1.561a2.769,2.769,0,0,0-2.461-.1l-1-.3c-.088.3-.265.9-.354,1.192-.392.211-1.109-.654-1.8-.534-.388.209-.446,1.493-.446,1.493,2.518,1.4,3.083.6,5.777,1.4m-5.068-7.046c.443-1.494,1.726-4.689-.517-3.73-.689.118-1.61,2.118-1.071,3.583.3.088,1.5.446,1.588.147m11.1-4.378c.482-1.545.923-3.408-.856-2.649-.689.122-1.4,2.511-1.074,3.587a1.293,1.293,0,0,0,.882.454,3.753,3.753,0,0,0,.279,1.884h.937c-.209-1.047.142-2.515-.168-3.276m-13.107,22c.443-1.494,1.726-4.691-.516-3.733-.688.119-1.611,2.121-1.071,3.584.3.089,1.5.446,1.587.149m-11.075-3.307c.445-1.494,1.726-4.69-.518-3.733a3.274,3.274,0,0,0-1.07,3.584c.211.388,1.409.745,1.588.149m5.4,8.119c-.534,1.792-2.661.182-3.949.121.09-.3.179-.6.179-.6,1.165-.628,2.4.715,3.77.475M246.821,494.1c.3.091.479-.506-.033-.985-.6-.178-1.286-.058-1.494-.447s.266-.9.354-1.194a1.178,1.178,0,0,0-1.706-.835c-.477.509-.535,1.794-.8,2.687,1.2.358,2.6,1.1,3.679.774m-8.557,31.937a3.613,3.613,0,0,0,.894-2.987c-1.441-1.732-1.823,1.732-2.478,2.838.6.177,1.5.447,1.584.149m-1.234-4.6c.714-.385.414-1.072-.054-1.361a1.848,1.848,0,0,0,.028-1.343c-.934-.626-1.873.938-1.248,1.561l.045.032c-.908.571.516,1.5,1.229,1.111M231.661,554.5c.429-.774-1.035-2.211-1.65-1.558-1.686.62-.574,1.781.529,1.945-.285.115-.564.239-.834.373-1.821.913-1.363,3.652-.452,4.564.91,1.369,4.1,1.369,5.466,0,.454-.912-.912-2.282,0-3.2.454-.456,2.277.457,2.277-.456a3.416,3.416,0,0,0,0-4.109c-.909-.914-.909.914-.909,1.825a15.9,15.9,0,0,0-4.427.611m2.218-5.041c1.168-.628-.061-1.971-.928-1.254a1.474,1.474,0,0,0-.189.125c-1.377-.757-3.477-.3-3.912.57-1.822,2.282,2.733,1.371,4.557,1.825,0-.391.085-.783.11-1.138a.452.452,0,0,0,.362-.128m3.384-1.327c3.636-1.961-.2-6.15-2.9-3.912-3.635,1.96,1.69,4.565,2.9,3.912M225.448,536.2c1.078-.329-.363-2.061-.928-1.255-1.463.541.152,1.674.928,1.255m-14.223,9.418c.868-.717-.361-2.059-1.227-1.343-1.166.629.542,1.464,1.227,1.343m4.257-12.068c1.167-.629-.063-1.972-.928-1.255-1.168.629.242,1.374.928,1.255m10.81-.548c.592-.453-.477-1.511-1.181-1.132-.793.428-.432,1.05.124,1.269a.856.856,0,0,0,.234,1.213c.934,1.249,1.559-.626.934-1.25a1.118,1.118,0,0,0-.111-.1m2.615-2.928c1.078-.33-.452-1.76-.928-1.254-1.464.539.152,1.673.928,1.254m5.538-63.086a1.309,1.309,0,0,0,1.3.476c-.182.8-.53,1.573-.739,2.271.282.087.767.538,1.049.622l.285.085c.169-.566.336-1.132.506-1.7,1.134.338,1.584-.144,1.756-.709-1.616-.79.844-2.83-.121-3.734-.229-1.3-1.816-1.159-3.234-1.583.254-.847.793-1.613.677-2.262s-1.533-1.074-1.7-.507c-.736.395-1.072,1.526-.594,1.981a3.412,3.412,0,0,1-.842,2.827c-.169.567-1.67.425-2.351-.394-.285-.085.533-.764.25-.848a.982.982,0,0,0-.583-.334c.043-1.144.013-2.132-1.2-1.93.589.889-.22,2.339.491,3.553-.088.256-.213.418-.427.352-1.222-.055-2.779,1.021-2.18,2.125-.083.281.85.254.85.254.23,1.3-1.128,2.744-.527,3.846.142,1.585,2.38,1.328,3.714,2.035,1.241-2.1,1.068-4.612,2.593-6.623,0,0,.583.41,1.032.194m1.391-.9a.557.557,0,0,0-.883.065,1.339,1.339,0,0,0-.18.075c.011-.22.048-.432.2-.513l.849.253ZM227.2,495.4a.935.935,0,0,0,.262-.2.811.811,0,0,0,.192.725c.933.937,1.557-.625.933-1.25-.324-.486-.732-.3-.96.08-.031-.607-.947-1.195-1.354-.612-1.47.539.242,1.374.927,1.254m2.222,4.57c.866-.718-.364-2.061-1.14-1.644-1.252.927.454,1.763,1.14,1.644m22.032-24.659c1.166-.629-.063-1.971-.84-1.552-1.255.925.453,1.762.84,1.552M242.8,488.459l-.561.271c-.969-.571-1.233-1.831-1.781-2.956l.843-.406c.544,1.124.809,2.385,1.5,3.091m.344-5.723c.139.282.41.844.547,1.125l.039-.019a2.2,2.2,0,0,1-.1.2c.6.179,1.409.745,1.585.149a3.02,3.02,0,0,0,.852-2.553,1.9,1.9,0,0,0,1.012-.8c.145-.418-.129-.98-.537-1.823.135.28.281-.136.561-.272a1.417,1.417,0,0,0-.683-1.4c-.414-.146-.56.272-1.121.544.408.842.683,1.4.123,1.677-1.406.68-3.93,1.9-2.56,4.015Zm5.259,3.7c.137.28.272.562.272.562.561-.274,1.4-.68,1.685-.815-.137-.283-.409-.844-.546-1.125.7-.689,2.237-.389,2.389-1.505.281-.137-.688-.708-.546-1.125.368-.476,1.25-.426,1.576-.673a2.048,2.048,0,0,0,.291.426,3.263,3.263,0,0,0,3.739,0c.313-.312.313-1.561-.31-1.561-1.126,0-3.224-.162-3.72.451-.189-.364-.533-.784-.708-1.145-.986.824-1.114-.155-1.8-.862-.418-.145-.843.409-1.124.543,1.924,2.541-1.436,3.474-2.43,4.995-.413.539-.173,1.747.6,2.722a6.565,6.565,0,0,0-2.97-.659c-.09.3-.181.6-.267.895,1.585.149,3.713,1.76,3.945-.121a2.043,2.043,0,0,1-.561-.074l.481-.232a1.086,1.086,0,0,0,.007-.7m-10.761-10.06c.968.571,1.128-1.243.3-1.535-1.248-.435-.993,1.526-.3,1.535m-26.487,7.371,0,.328,1.964.021a3.138,3.138,0,0,0,.016.386.869.869,0,0,0,.174.824.917.917,0,0,0,.351.234,1.319,1.319,0,0,0,.75.212c.347-1.965,3.276.036,3.946-1.268,1.318-.643.676-2.292.7-3.931.983.011,1.962.348,2.621.029s.679-1.963.02-1.97c-.646-.663-1.957-.679-2.294-.025a3.79,3.79,0,0,1-3.273-.036c-.654-.007-.964-1.651-.3-2.631.005-.329.978.34.982.011,1.005-1.958-2.288-.353-2.279-1.337-.313-1.316-1.933-2.647-2.93-1.672-.328-.005-.009.983-.009.983-1.32.642-3.273-.364-4.267.609-1.643.638-.687,2.947-1.034,4.583a17.067,17.067,0,0,0,4.506.241c-.585.447-1.284.709-1.544.97a17.618,17.618,0,0,1-4.054,0v1.249c.937.312,2.184-.626,3.117.312.314,0-.31,1.25.314,1.562h.933c.312.937-.31,1.875,0,3.122h.936a17.652,17.652,0,0,0,0-4.058c2.041.255,1.995-1.58,1.569-3.111a7.361,7.361,0,0,1,2.078.458s-.335.98.314,1.316c0,.07.044.1.116.1a2.027,2.027,0,0,0,.288.928h.623a9.168,9.168,0,0,1,.111-1.1.3.3,0,0,1,.171.088c0,.327-.011.985-.011.985-1.317.64-2.951.294-4.26.28-.005.329-.341.981-.342,1.309m2.735,22.327c-2.013,0-6.436-.4-4.424,2.016.805.4,3.619.807,4.827,0,.4-.4.4-2.016-.4-2.016m-6.436-18.133c-.14,0-.287,0-.445-.006a1.053,1.053,0,0,0-.251-.755c-.44-.44-1.033.2-1.127.733-2,0-4.11.23-2.6,2.041.8.808,3.623,1.209,4.829,0,.4-.4.4-2.013-.4-2.013m3.62,11.686a1,1,0,0,0-.4-1.613c-.4,0-1.608.4-2.012,0,0-.4.4-1.208.4-1.61a1.514,1.514,0,0,0-2.414-.4c-.4,1.209,0,2.418,0,3.627,1.608,0,3.217.8,4.423,0m6.84,9.27c-1.206-.807-2.416,1.209-1.207,1.611,1.207,1.611,2.01-.806,1.207-1.611m-12.471-16.122c-.8-1.209-2.01.806-1.206,1.613,1.206,1.612,2.009-.807,1.206-1.613m7.965,23.671c.036-.789-.439-1.113-.935-1.089a1.606,1.606,0,0,0-.192-1.625c-.8-1.209-2.01.807-1.207,1.612a1.528,1.528,0,0,0,.521.477,1.052,1.052,0,0,0-.2.727c-.322.048-.918.633-1.519.933-.312-.937-.312-1.561-.936-1.873a2.173,2.173,0,0,0-1.246.625c0,1.248.623,2.5,1.87,2.5.312.311.936-.626,1.248-.626.313.314.313,1.25.623,1.25a1.87,1.87,0,0,0,1.248-.313c0-.623-.312-.623-.312-.937a3.994,3.994,0,0,1-.218-.543c.629-.017,1.4-.6,1.257-1.116m-13.448-.3c.576-1.927,2.225-6.052-.665-4.814-.888.155-1.808,3.239-1.382,4.624.272.5,1.818.961,2.047.19m-1.617-18.533c1.5-.809-.081-2.541-1.085-2-1.62,1.2.582,2.273,1.085,2m-10.71,9.577c.176.365.525,1.089.7,1.452l.052-.026a2.4,2.4,0,0,1-.135.258c.772.231,1.817.962,2.048.191a3.906,3.906,0,0,0,1.1-3.294,2.431,2.431,0,0,0,1.3-1.035c.187-.539-.164-1.264-.691-2.35.176.361.361-.177.724-.351a1.834,1.834,0,0,0-.879-1.816c-.535-.187-.725.352-1.447.7.525,1.086.877,1.813.155,2.163-1.81.878-5.067,2.455-3.3,5.182Zm6.781,4.775c.174.364.349.727.349.727l2.174-1.05c-.177-.364-.526-1.09-.7-1.452.909-.89,2.885-.5,3.082-1.943.36-.173-.889-.912-.707-1.449.474-.616,1.609-.553,2.033-.869a3.086,3.086,0,0,0,.374.55c.8.808,3.621,1.209,4.829,0,.4-.4.4-2.013-.4-2.013-1.449,0-4.159-.21-4.8.58-.244-.471-.688-1.012-.915-1.476-1.271,1.063-1.435-.2-2.324-1.113-.539-.189-1.086.526-1.45.7,2.482,3.275-1.853,4.48-3.134,6.446-.534.694-.227,2.251.77,3.51-1.123-.335-2.453-1.092-3.831-.853-.114.387-.231.773-.342,1.156,2.045.193,4.787,2.272,5.091-.156a2.722,2.722,0,0,1-.726-.094l.62-.3a1.432,1.432,0,0,0,.009-.9m2.52-35.754.379-.171-.848-1.887a1.827,1.827,0,0,0,.113-.532c1.233-.665,1.246-1.521.927-2.227-1.846.487-1.881-1.914-2.58-3.159,1.633.233,3.96.168,3.415-2.3h-.313c-1.458,0-4.01-.82-3.82,1.634a1.036,1.036,0,0,0-.269-.046,1.917,1.917,0,0,0-2.1-.191,3.024,3.024,0,0,1-.041-.46c0-.313-.935,0-1.247,0a9.242,9.242,0,0,0-.138,1.21,14.634,14.634,0,0,1-1.37.736c-.512-1.139-.648-2.448-1.368-3.035s-2.622.27-2.281,1.028c-.416,1.1.266,2.615,1.2,2.654a4.817,4.817,0,0,1,1.706,3.792c.132.286-.041.645-.38.962,0-.4.139-.889.139-1.1-.625,0-.31-.626-.625-.626a8.464,8.464,0,0,0-2.8,0v1.25c.625,0,1.248,0,1.248.312a3.163,3.163,0,0,0,.032.978,2.52,2.52,0,0,1-.476-.031c-.384.172-.132-1.307-.511-1.138-2.794-.111.811,2.828-.329,3.34-1.345,1.063-2.014,3.644-.36,4.268.171.378,1.14-.512,1.14-.512,1.442,1.174,2.6-.18,4.252.444,1.615,1.554,2.489,3.361,4.557,2.884-.6-3.376-3.11-5.895-3.337-9.442,0,0,1.309-.135,1.352-1.063.379-.171-.894-.967-.683-1.518.377-.171,1.14-.513,1.14-.513,1.439,1.175,1.916,3.242,2.6,4.759.377-.171,1.309-.134,1.69-.306m98.171,40.017c0-1.914-1.912-.957-3.345-1.437-.478-.477.478-1.436,0-1.914a1.035,1.035,0,0,0-.279-.2.912.912,0,0,0-.235-.5c-.334-.333-.755-.042-.98.4a3.561,3.561,0,0,0-.895.31v1.437c-.476.477-1.91-.481-2.388,0a3.742,3.742,0,0,0,0,2.391c3.823,1.437,4.3-.477,8.122-.477m-7.166-7.657c-2.389,0-7.643-.48-5.253,2.393.478.477,3.82.957,5.732,0,0-.479,0-2.393-.479-2.393m25.318,34.456c-2.392,0-7.644-.477-5.257,2.395.477.957,4.3,1.435,5.732,0,.478-.48.478-2.395-.475-2.395m-57.441-15a3.057,3.057,0,0,1-.068-.509l-.531.484Zm-.357-4.14c2.868-.477,1.433,3.35,1.911,5.264h-.955a2.174,2.174,0,0,1-.535-.881,1.864,1.864,0,0,1-.972.525c.441.145.8.555.8,1.5h1.871v.311c0,.313-.313.938-.313,1.25-1.248,0-2.8-.312-4.051.313v.937c.312.312,1.247-.312,1.247,0,.623.312.311,1.25.311,1.25,2.493.935,4.988,0,7.484.623-.312,1.562.623,3.749-.938,4.375-.934.938-2.806,0-4.053.625,0,0,.313.936,0,.936-.933.936-2.493-.311-2.8-1.561,0-.938-3.119.625-2.184-1.249,0-.314.937.311.937,0,.624-.939.312-2.5-.313-2.5a4.258,4.258,0,0,0-2.2-.314,1.072,1.072,0,0,1-1.234.627,1.7,1.7,0,0,1-1.87-.313c-.622,0-.622-1.561,0-1.875s1.559,0,2.494,0c0-1.561-.624-3.124.624-3.749.615-1.23,3.347.568,3.726-1.167-1.131-.116-2.218-1.3-2.922-2.075-.422-.461-.884-.037-1.575.6-.42-.46-.861-.48-.843-.919a1.421,1.421,0,0,1,1.152-1.056c.213.229.652.249.422.462.691-.635,1.154-1.057,1.593-1.038a1.92,1.92,0,0,1,1.059.741,3.11,3.11,0,0,1,2.485-.032,2.719,2.719,0,0,0-.354-1.6M276,513.358c0-.478-.954-.478-1.43,0,0,.959.476,2.394,0,2.873H272.66c-.48,0-1.431,1.914-.48,2.392,1.436.479,2.867,0,4.3,0,0-1.915.954-3.829-.482-5.265m-5.839,6.125c-1.394-1.2-2.735,1.545-1.8,2.012a4.04,4.04,0,0,0,.342.3c-.217-.044-.409-.053-.522.061v1.56h1.248c.309.313-.315,1.249,0,1.875.309.312,1.557,0,1.557,0,.623-2.811-.308-3.123-.308-5.936a1,1,0,0,0-.516.124m-1.8-5.166a.667.667,0,0,0-.561-.22.308.308,0,0,1-.013-.129c.018-.44.69-.632.919-.843.252-.651.081-1.763-.821-1.361-.673.191-1.383,1.267-2.073,1.9a15.8,15.8,0,0,1,.972,1.328c-.236.489-.263,1.038.142,1.241.859,1.144,1.543.578,1.753-.267a.822.822,0,0,0,.158-.847c-.043-.048-.091-.092-.137-.137a1.344,1.344,0,0,0-.339-.663m30.091,22.492c-1.431-1.433-2.867.957-1.431,1.916,1.431,1.434,1.907-1.436,1.431-1.916m1.891-11.025a1.071,1.071,0,0,0-1.622-.109.118.118,0,0,0-.129.1c-.772.85-.6,1.268-.077,1.517a1.43,1.43,0,0,0,.413.424c.612.612,1.051.441,1.314,0,.669.145,1.2.338,1.065.812-.052,1.752,1.341,3.909,2.893,3.7a1.337,1.337,0,0,0,.463,1.709c1.431,1.437,1.91-1.436,1.431-2.394a1.161,1.161,0,0,0-.906-.2,5.61,5.61,0,0,0,.019-.72,4.4,4.4,0,0,1,2.064.209.694.694,0,0,0,.193.394c.444.446.82.325,1.023.008a3.66,3.66,0,0,0,2.984.15c2.57-.279,2.1-3.909,3.208-6.093-3.438-1.963-7.522-1.613-10.83-4.04,0,0,.85-1.257.058-1.981.13-.462-1.519.073-1.848-.518.129-.464.387-1.388.387-1.388,2.112-.409,4.291.7,6.139,1.224.13-.466.854-1.263.983-1.725l.13-.462q-1.389-.389-2.774-.778c.521-1.855-.273-2.577-1.2-2.833-1.243,2.645-4.622-1.3-6.067.294-2.107.407-1.833,2.981-2.483,5.295-1.386-.39-2.642-1.24-3.7-1.038s-1.7,2.519-.781,2.779a2.707,2.707,0,0,0,2.266,1.289c.676.462,2.592.227,3.455.446,0-.215,0-.465-.011-.7a8.642,8.642,0,0,1,2.147,1.174c.831.233.763,2.232-.214,3.454m-13.355-6.2c-1.433-1.437-2.865,1.435-1.433,1.913,1.433,1.916,1.911-.957,1.433-1.913M264.54,512.4c-.955-1.435-2.391.956-1.435,1.915,1.435,1.914,2.391-.959,1.435-1.915m-4.777,1.915c-1.431-.959-2.866,1.435-1.431,1.914a1.471,1.471,0,0,0,.8.628c-1.565,0-4.976-.307-3.42,1.564.31.623,2.805.623,3.742,0,.29-.293.311-1.41-.2-1.549.859.019,1.241-1.826.514-2.557m17.945,25.2-.645-.7a2.96,2.96,0,0,0-3.117,1.557s.322.351.644.7c-1.764,1.615-4.237,3.876-1.565,4.669,1.354.06,3.117-1.557,4.207-3.2l-.646-.705c.063-1.351,1.413-1.292,1.122-2.319m-.079-5.757a2.532,2.532,0,0,0-.756-.917l.039-.052c.935-1.562.312-3.75.935-5.622.31-1.564-.623-2.814-1.561-1.564s.938,5.936-1.87,5c-.312,0,.311-1.562,0-2.186a1.415,1.415,0,0,0-1.559,0c-.31.313,0,.937,0,1.561-.937-.311-2.179.625-3.119-.311-.309-.313,0-.937-.309-1.25h-.936c0,.937-.623,1.875-.312,2.811-.935-.312-1.247,1.252-.935,1.252,1.56.935,3.432-.314,4.986-.314-.312.625-.933,1.561-.312,2.187a1.449,1.449,0,0,0,1.041.427,20.979,20.979,0,0,1-1.824,1.772c.186-1.888-2.782-1.888-4.2-1.888v.938h.624c.312,1.25-.312,2.186,0,3.123a1.136,1.136,0,0,0,1.556.626c.315-.626-.308-1.249,0-1.876.624-.312,1.249.627,1.872-.312l.009-.02.371.406a23.233,23.233,0,0,1,3.7-2.935,1.943,1.943,0,0,1,.291.05,1.985,1.985,0,0,1,.013-.227,9.109,9.109,0,0,1,2.617-1Zm2.753-5.616a1.568,1.568,0,0,0-1.541,1.268c-.072,1.6,1.636,1.167,2.213.409.505.973.3,2.639,1.778,2.345v.937c.937.312.937-.312,1.563-.937.309-.313.624,0,1.247,0-.313,0,.31.314.31.625.311,0,.935.312,1.245-.311a26.684,26.684,0,0,1,1.249-7.187c0-.626-1.249,0-2.183-.312.312,2.188-1.868,2.188-3.431,2.188v.311c-.806.406-1.88.285-2.45.664m-25.967-4.863a1.873,1.873,0,0,0-.046-.505,5.582,5.582,0,0,0,1.495.835c.632.242,1.72-.331,2.433-1.352a6.6,6.6,0,0,0,.218,3.034h.937c-.312-1.562.626-4.06-1.246-3.749a2.146,2.146,0,0,1,.089.56l-.358-.393a1.1,1.1,0,0,0-.673.194c.23-.211.462-.42.462-.42l-1.262-1.382c-.233.211-.694.633-.923.844-.863-.478-1.014-2.032-2.125-1.86-.155-.168-.343.379-.606.672a.627.627,0,0,0-.678-.088c-.375-.416-.553-1.1-.9-1.119-.437-.018-.918.843-1.378,1.264,1.068.708.169,1.114-.312,1.976-.02.44.632.69.841.919a2.53,2.53,0,0,1,1.112-.936.947.947,0,0,0,.152.2,1.792,1.792,0,0,0,.616.565,1.27,1.27,0,0,0-.223.98c-.1,2.025,2.67.791,2.379-.235M93.587,514.36c-1.556,0-2.8.314-4.051.314,0-.623,0-.623-.31-.937-.623,0-1.247,0-1.562-.625,0-.313.315-.937,0-1.25-.933-.625-2.18.313-2.805.625-.623.625-1.556,2.187-2.494,1.564-.31-.314.938-1.564.624-2.189-.934-.625-1.248.313-1.871.625-.621.937-2.493,0-3.428.625-.312,0-.312.939,0,1.562.623.312,1.557-.623,1.871.312a3.453,3.453,0,0,1,0,2.5c0,.312-.936,0-1.248,0-.935.312-.935,1.561-.623,1.561.623.627,1.871,0,2.495.313v.937c.623.313,1.246,0,1.87.313.624.626-1.247,1.563-.937,2.5-1.557.313-4.362.313-3.74,2.812H78v1.562a3.614,3.614,0,0,0,3.117-.624c.937-1.25,3.118.624,3.741,0,.937-.938,2.185-1.25,2.5-.626.932.315,0,1.25-.311,1.564-1.248.624-1.248,2.5-.624,3.435a4.2,4.2,0,0,1,.311,1.563c-2.184.936-4.366-.311-6.234.624.311,1.561-1.25,1.249-2.184,2.187v1.561c1.56.312,2.495-.625,3.742-1.249v.624c1.248.314,1.869-.312,2.8-.936,0,1.25.937,2.186,0,3.123,0,.313-1.246-.312-1.246,0a5.144,5.144,0,0,0-.31,3.123c-1.248,0-1.562,2.188-1.248,2.188A6.715,6.715,0,0,0,83.3,545.6c1.869.938,2.493-.312,2.493-2.188h1.248c-.313-2.5,1.559-1.874,3.115-1.874,0,.626.311,1.25-.308,1.562h-.625c-.314.938-.623.938-1.247,1.562-.624.314-.935,2.188-.315,2.5,1.248.938,3.119-.311,4.678.313v1.25c.623.313,1.245-.311,1.56.313v1.248a2.821,2.821,0,0,0,3.12.939c1.243-.313,1.243-1.876,1.243-3.125a1.148,1.148,0,0,0,.936-.312,17.829,17.829,0,0,0,.312-4.061h-.938c-.621-1.25.938-1.562.938-2.5.937-1.248.312-3.436.937-5.31,0-.312,1.246-.312,1.556-.312v-.626c1.872-.935,1.248,1.25,2.184,2.5h.622c.313.938,0,2.188.938,2.813.622.313,1.557.313,2.178.936.316,1.25-.309,2.186.316,2.812.624.312,1.247,0,1.557,0,0-1.874-.31-4.373,2.185-4.06.622.312,0-.938.31-.938a2.319,2.319,0,0,1,2.8,0c.623,0,.937,1.25,1.872.625,0-.625-.625-1.875,0-2.188h1.247c.314.627,0,1.876.314,2.188.934.938,2.8-.312,3.737.625.315.313-.309,1.248,0,1.56a1.978,1.978,0,0,0,1.872,0c.623-.936,1.56-2.185,1.248-3.435a5.9,5.9,0,0,0,.623,2.5c0,.936,1.248.936,1.56.312.936-.623-.312-2.186.622-3.122.314-.627,1.559-.314,2.494-.314-.31-.625,0-1.25,0-2.186a2.748,2.748,0,0,1,.314-2.187c.31-.935,1.558-.312,2.493-.312-.312.624-.624.938-.312,1.561a.306.306,0,0,0,.312.312c0,.938,0,2.5.312,2.812,2.182,1.563,4.674,1.25,7.171,1.25V538.1c-1.248,0-2.183-.939-1.248-2.5h1.248v.624c2.495-.312,6.546-.624,6.234,3.75,0,0,.312.936.937.625,0,.623-.313,1.873,0,2.5s1.247,1.25,1.558.938,0-1.562,0-2.188c.312-.312,1.246,0,1.246,0,.625.938.314,2.188.314,3.75-.314-.312-.314.313-.623.313s.309.937,0,1.248c-1.248.313-4.053,0-2.808,1.563.626.313,2.183,0,2.808.313.934,1.248-.313,3.437.934,4.372.313.625.936,1.25.623,1.564-.623.623-1.87.311-2.8.311,0,.625,0,.625-.312.937-.622.313-1.56,0-1.872.625,0,.624-.312,2.186.624,2.186,1.871.625,3.742-.624,4.678,1.563h.933c-.623,0,0,.312,0,.936h2.495c0,1.25,1.249,1.25,1.872.938a.972.972,0,0,1,.31-.625h.314v-1.249c.624-.626,1.248-.938,1.248-.626.933,1.25.622,3.438,0,4.687-.314.312-1.872-.312-2.186.312-.309.937-.933.937-1.558.937,0-.625.313-1.561,0-1.874-.935-.624-2.183-.313-3.118-.313.314-1.874-1.871-1.561-2.8-1.249-.312,0,.934,1.249.625,1.875-.625,0-1.56-.313-2.182,0-.313.312-.626,1.248-.313,1.561,2.182,1.248,4.989-.625,6.546.937,1.247.625,0,4.062,2.5,4.062a8.729,8.729,0,0,1,.309-2.811c0-.314,1.247-.314,1.247,0,.625.936.315,2.186.315,3.123h-.624V573.4c2.493-.624,4.364.313,6.547-.624v-.938c-.626-.312-1.56.312-2.495,0a1.919,1.919,0,0,1-.312-1.874c.624-.313,1.247.313,1.56,0v-.625c.311-.624,1.247-.312,1.557-.938a1.383,1.383,0,0,0,0-1.561c-.626-.313-1.557.311-1.557,0a7.744,7.744,0,0,1-.313-2.5c.313,0,.624-.313.934-.313,0,1.561,1.56,1.249,2.8,1.249-.622-1.873,1.872-1.873,2.806-2.811a1.876,1.876,0,0,1,.313-1.25,6.08,6.08,0,0,1,2.183-.312v1.25c.936.312,2.5.312,2.5.937a22.15,22.15,0,0,1-.312,4.373c-.621,1.25.935,2.812.312,3.749,0,.312-1.559.312-1.559,0-.936-1.875-2.494-2.187-4.366-1.875.313,1.563,0,3.124.934,4.061.625.625,1.563,0,2.5.313,0,.312-.31.937,0,1.562s.936.624,1.562.624v-1.249c.621-.313.933,0,1.556,0-.312.313.312.625.312.936a.947.947,0,0,0,1.248,0v-1.249c1.246.313,1.868,0,2.183-1.561.309.312.624-.313.624-.313.308-.625,0-.937-.315-1.249-.624-1.25-.934-3.123,0-4.063.315-.624,1.559.314,2.186.314.309,0,.62.626.62,1.25a4.443,4.443,0,0,0,1.872.624c.624,0,0,.938.311,1.563s1.558.312,2.181,1.248c0,.626.624,1.25.624,1.875.939.312,1.249.625,2.182.938.938,0,.313,1.874.938,2.186a8.768,8.768,0,0,1,4.366,3.124c.624.937,1.869,2.187,2.181,3.747,0,.314,1.247.314,1.555,1.25a13.274,13.274,0,0,0,1.25,3.125c0,.313.314.313.623.624a9.268,9.268,0,0,1,.622,4.062c.315-.313.623.313,1.249.313-1.871,0,0,3.747,0,5.623a1.365,1.365,0,0,0,.935.312c.626,1.875-.312,4.372.311,6.56h.934c.626,1.873-.619,3.748.626,5.31.314.313,1.246.938,1.246,1.25.938,2.811.314,5.936.314,8.747,1.127.806,3.339.53,4.994.72a5.841,5.841,0,0,1-.157,2.465,1.526,1.526,0,0,1-.325.586c-1.277-.133-2.521-.451-3.888-.647,0,.623-.314,1.561,0,1.872,0,.315.933,0,.933,0,.314,5,0,10,.314,15a1.076,1.076,0,0,0,.623.313c.622-.313.309-.938.622-1.25.624,0,1.248.312,1.872,0,.213-.213.133-.57.065-.974a21.654,21.654,0,0,1,3.49-.939,5.684,5.684,0,0,1,1.258.186,4.464,4.464,0,0,0,.694.2,5.894,5.894,0,0,1,1.443.657c.025.169-.283.622.22.873.625.312,1.245.625,1.867.312v-.609c.19-.055.379-.128.573-.2,2.059.33,4.258-.626,2.547-2.625a.579.579,0,0,0-.074-.066c-.026-1.563.744-2.9.744-4.394a5.979,5.979,0,0,0-.131-1.2c.073-.3.058-.529-.139-.578-.212-.768-.5-1.517-.726-2.282-.274-1.544.3-3.368-.919-4.287-.625-.625.933-2.188,0-3.124-.31-.626-1.246,0-2.5,0v-.626c.622,0,1.251-.312,1.251-.624,1.246-5.936,0-11.873-.313-17.495,0-.313-.938-.313-.938-.313-1.869-4.372-.62-9.37-.932-13.743,0-.625,1.247-1.561,2.183-2.5.312,0,.621-.626.621-1.562.625,0,1.248-.314,1.87,0V580.9h.624c.313-1.25.625-2.186,1.871-2.5a6.065,6.065,0,0,1,4.678,0c.311,0-.312.937,0,1.562a2.932,2.932,0,0,0,3.74.626c1.558-.938,0-2.812,0-4.373.31,0,.625,0,.625.312,0,.937.31,1.249.933,1.249a6.422,6.422,0,0,0,3.43,0c.312,0,1.248-.625,1.248-.937.622-1.874-.623-4.374.622-5.935a2.837,2.837,0,0,1,3.744-.313c.311,0,0,.937,0,1.874.623-.313.933,0,1.246,0-.313,2.5,2.18,1.874,3.428,1.874v-.624c1.248-.625,2.183.937,3.12.624V573.4c.935-.312,1.87,0,3.118,0,0-.937,0-1.562.623-1.874a27.542,27.542,0,0,1,7.169,0v.937h.625a3.99,3.99,0,0,1,.31,1.874c.313,1.249,2.184-.312,2.808.938.935,2.5,4.987,0,7.794.624,0,0-.312,1.25,0,1.563s.935,0,.935,0c1.248,3.124-.623,6.558,1.248,9.684h.624c.624.937.31,2.185.31,3.123h.934c0,.626,0,1.562.626,1.875,1.246,0,2.491-1.249,3.739-.626a4,4,0,0,0,3.743.313c.311-.313-.313-.936-1.248-1.562V588.71c.935-.313,1.559.311,2.494,0v-1.562h-.623a6.736,6.736,0,0,0,0-2.5c-.312-.312-1.249.312-1.559,0s.31-.938,0-1.561c-.624-.624-2.183.311-2.807-.624V580.9h.939a2.36,2.36,0,0,1,.31-1.563,6.682,6.682,0,0,0,2.494,0s-.313-.937,0-1.25c0-.311.935-.311,1.246,0v.939c.624-.312,1.249,0,1.249.311.309,1.251-.311,3.438,1.556,2.812v-.624c.939-.625,2.184.312,2.184-.625a2.077,2.077,0,0,1,1.246-1.563c.936-.623-.312-.937-1.246-1.561V575.9c.934-.313,2.493-.624,3.116,0,.313.314,0,1.25,0,1.875h.625c0,.311.313,1.25,0,1.25-.935.311-1.248,1.562-.935,1.874.623.312,1.557,0,2.182,0-.311-1.25,1.246-1.874,1.561-1.25a2.342,2.342,0,0,1,0,2.813,7.682,7.682,0,0,0-.315,2.809c.315.314,1.249.626.937,1.25-.622.314-1.56-.312-2.183,0V588.4c1.246,0,2.495-.312,3.43.313.622.623.934,1.248,1.871.936a4.543,4.543,0,0,0,.622,2.187.943.943,0,0,0,1.245,0V590.9c1.562,0,1.562-1.564,1.562-2.5,0-.312.934-.625,1.247-.312a15.018,15.018,0,0,0,0,3.748h.621c.315.937-.621,2.5.627,3.124.311.313,1.244.313,1.244,0,.314-.625,0-1.873.314-2.5,0-.312,1.248.312,1.248,0,.624-.938,0-2.187.624-3.125.623-.623,1.556,0,2.493,0,0,.625-.312,1.564,0,1.875,1.869,1.25,4.053-.625,2.807-2.811-.938-1.561-2.807.313-3.431-.625a3.185,3.185,0,0,1-.622-2.812c1.246.312,1.246-1.562.622-1.873a2.765,2.765,0,0,0-1.246-1.562c-.623-.625-1.561-.313-2.495-.313a1.873,1.873,0,0,0-.314-1.25c-1.556-.312-3.116-.312-4.363-1.248-.312-.627-1.56,0-2.183-.314-.31-.313-.934-.936-.622-.936,1.557-.313,2.805-.625,2.183-2.5.622-.312,1.246.312,1.869-.312s.311-1.563.311-2.188a2.723,2.723,0,0,0,2.805-1.561c.314-1.563,0-4.061-2.18-3.437v.626c-1.248.624-2.495-.626-1.871-2.188.312-.937,1.871,0,2.807-.625,0-.312.311-.936,0-1.249-.936-.313-1.248-1.562-.936-1.562,1.247-.938,2.8-.312,4.052-.312-.31.312.314.312.314.624a.945.945,0,0,0,1.247,0v-.624h.934c.312-.313-.312-1.25,0-1.25.936-.626,1.87-.312,2.806-.312,0-1.25,1.559-1.562,1.869-.938h-.933c-.314.624,0,1.25,0,2.187.309-.313.933.313.933.313a17.71,17.71,0,0,0,.314,4.06h-.314c-.624.937-.31,1.876-.31,2.812H321.5c0,.625-.315,1.875.309,2.187,1.247,1.249,3.428-.625,4.989.312.31.312,0,.937,0,1.25a1.414,1.414,0,0,0,1.558,0c.311-.313,0-.938,0-1.25.935-.312,2.183.312,3.43,0,.312-.312.937-1.249,0-1.874,0-.313-.935,0-1.247,0v-2.187c1.247-.938,2.807-.313,4.363-.313.624,0,1.249.313,1.249,0,.623-.937.313-1.874.313-2.81.621,0,1.245,0,1.558-.626v-1.561H336.77v-1.562c-1.248,0-2.495.312-3.428,0a1.378,1.378,0,0,1-.313-1.562h1.246a1.776,1.776,0,0,1,2.495-1.563c.311.314.624,1.25,1.56,1.25a1.63,1.63,0,0,1,.624-1.25,6.6,6.6,0,0,0,2.493,0c.313,0,.623-.624.313-1.561h-.623c.623-2.188-1.562-2.188-3.119-1.875v-1.249c1.247-.311,2.8.312,3.742-.311a4.257,4.257,0,0,0,0-2.812h-.939c.316-1.563-.623-1.875-.934-2.811s.625-1.875.311-2.813h-1.244c0,.625-.624.938-.936.625s0-.937,0-1.25c-.313-.313-1.248,0-1.558,0,0-.937-.623-1.875-1.562-1.563,0-.936.312-1.559,0-2.185-.31-.312-.933.313-1.246,0-.933-1.875.936-6.248-1.87-5.622v1.247a3.12,3.12,0,0,1-.935.314c-.312,0,0,.936-.312,1.25s-1.248-.314-1.56.311.312.939.312,1.25c.937,1.563.625,5-1.868,3.749-.315,0,0-1.25,0-1.561-1.562.311-1.249-1.562-1.871-2.188-.315-.311-.935,0-1.247,0,0-2.5-2.5-2.5-4.368-1.875-.309,0,.314.937.624,1.564v.937c-1.247.624-2.494-.314-3.739-.314,0-.937.312-1.562,0-2.187-.313-.312-1.248.314-1.561-.312-.309-.312,0-.938,0-1.25-.933-.312-1.87.312-2.494-.312-.31-.311,0-1.561,0-1.561,2.807-.623,6.238.312,9.355-.623-.313-2.188,1.558-1.877,3.115-1.877v.626c.937,0,2.494.312,2.809-.313.933-1.248-.623-3.747.621-4.686,1.249-.625,3.119-.313,4.366-1.563v-1.562c-.622-.312-1.559.314-2.182,0-.312-.623-.623-.623-.312-1.561s1.872-2.187.935-2.811-2.183,0-2.807-.626v-.936c-1.244-2.187-4.987.312-4.362-2.5h.933a1.984,1.984,0,0,0,0-1.875,1.918,1.918,0,0,0-2.182-.312c-.311.312,0,1.564,0,1.564a2.243,2.243,0,0,1-2.495-.314c-.933-.625,0-2.813-.933-3.124-.314-.625-1.561-.312-2.806-.312a.431.431,0,0,1,0,.623,6.626,6.626,0,0,1-2.494,0c0,.625,0,1.251-.314,1.251h-.933c.31,2.5-2.495,1.562-3.742,1.876.309-1.252-.625-1.252-1.559-1.252a7.787,7.787,0,0,1,.311-2.811c.312-.624.936-.312,1.872-.312a.993.993,0,0,0,1.87.625c.624-.313,1.248.312,1.558,0s0-1.249,0-1.563c-1.558.314-4.052-.623-4.052-2.812.936,0,2.494.312,3.118-.311.31-.625-.316-1.562.31-1.874h1.247a1.387,1.387,0,0,1,.938-1.875c.934-1.25-1.871-1.562-2.811-1.25v1.25c-.622.314-1.555-.312-2.178,0v.937c-1.249-.312-1.872.624-1.56,1.873-1.247,0-2.807.626-3.74-.31-.312-.313.31-1.563,0-1.875a4.278,4.278,0,0,0-3.43-.311,1.721,1.721,0,0,0-.937-1.564c-.933,0-.933.312-1.246.938-1.247.626-1.247,0-2.182-.626-.624-.312-2.183,0-2.806-.624v-1.25c1.869-.311,3.429,0,4.988-.311v-1.25a1.422,1.422,0,0,1,1.561,0c.309.937-.315,2.187,0,2.187,1.869.936,3.74.624,5.923,0v-.937c-.938,0-1.248-.626-1.248-1.561,0-1.563-.935-1.563-1.562-2.813-.622-.626-.31-2.186-.31-3.124h.625c0,2.5,2.179,2.811,4.052,2.5v-1.249c.936-.311,2.184.312,2.806-.311.312-.313-.311-1.25.312-1.562.932,0,1.558-.938,2.182-1.564v-.936c-.31-.625-1.558-.625-2.182-.312v.937a8.5,8.5,0,0,1-2.806,0c.311-1.25-1.247-1.562-1.869-1.25v1.25c-.626.311-1.248,0-1.248-.313a9.726,9.726,0,0,1-1.872-1.249c0-.313-.623,0-1.245,0a.306.306,0,0,1-.312.312c-.937,0-1.869.625-2.807-.312-.311-.627,1.246-1.562.623-2.5h-.934v-.938c.311-.624,2.181-1.248,1.557-1.874-.933-1.561-3.118.312-3.741-1.249-.311-.938-1.247-.624-2.493-.624,0,1.249.623,2.811,0,3.747-.311.625-1.56.625-2.494.314,0-.314.31-1.25,0-1.25-2.183,0-3.741-1.562-3.118-2.811.312-.626,1.872-.314,2.8-.314,0-.623.313-.936-.31-1.561h-.623v-.938c1.868-.937,4.052.313,5.922-.937.311,0,0-.937,0-.937-1.559-.626-3.119-.312-4.676-.312.622-1.561-.937-1.561-1.871-1.561,0,.312.314.936,0,1.247a1.974,1.974,0,0,1-1.87,0v-.935c-.936-.312-.313-1.562-.936-1.874a4.169,4.169,0,0,0-4.364-1.563c.623.623,1.246,1.875.309,2.5-.309.938-1.245-.624-1.87-.624-1.867-.626-3.427-.938-5.3,0v.312c2.183-.312,2.183,2.811,2.183,4.373-1.248-.312-1.561,1.25-1.561,2.188,1.561-.313,2.495.937,1.561,2.186-.312.312-1.248-.314-1.871,0a4.489,4.489,0,0,0-.624.936c-2.183.626-4.366,0-6.238-.624-.621-.312,0-2.187-.621-2.811-.935-.937-3.118,0-3.118-2.5a2.147,2.147,0,0,0,2.495-1.563v-.935c0-.312-.936-.312-1.249,0,0,.312-.935.624-1.246.312a6.725,6.725,0,0,1-1.248-1.562c-.623-.312-1.245,0-1.868.626a5.081,5.081,0,0,1-2.181,0V472.5a1.141,1.141,0,0,0,.932-.312c.311-1.252-.623-3.437.311-3.437a23.342,23.342,0,0,1,6.549.624c0-.624-.624-1.248-.312-2.185h-4.989c.313-1.25-.622-1.25-1.559-1.562,0-.314.311-.938,0-1.249a4.169,4.169,0,0,0-2.495-.627s.311-.936-.309-.936-.938-.313-1.248-.313c-.623-.624-1.248-.624-1.871-1.25a2.819,2.819,0,0,1,.312-1.561h.621a2.8,2.8,0,0,0,.315-1.561c1.871,0,3.743,1.249,5.3.311,1.248-1.25.625-3.747-1.556-3.123v.626a4.609,4.609,0,0,1-2.187-.314c-.623-.312-1.871,0-2.8-.312-.312,0-.623-.624-.935-.938-.311-.624,0-2.187-.311-2.812-.624-1.249-2.5-.937-3.429,0-.315,0,.309.939,0,1.562-.315.314-1.25,0-1.563,0a17.993,17.993,0,0,0-.309-4.06c-.937-1.562-2.494-.938-3.742-.938.314,1.875-.624,2.5-1.558,3.749-.623.626,0,1.563-.314,1.875-.623.312-1.557,0-2.492,0,0-1.249.311-2.813-1.248-3.125.312.625-.311,1.25-.311,1.25-.624.312-1.247,0-1.557,0,0-.938-.314-1.562.933-2.186.624-.313,0-1.874.312-2.813-.935,0-2.184-.311-2.184.314,0,1.562-.933,1.562-1.869,2.5v.936h.936a2.688,2.688,0,0,1,0,2.187.949.949,0,0,1-1.248,0v-.937c-.311-.625-1.56-.313-2.184-.313-.933,0-2.182-1.561-2.805-3.123,1.248-.313,2.495-1.249,1.56-1.874-.937-.939-3.117-.939-4.677,0a1.994,1.994,0,0,1,1.56,2.5c-1.249-.938-2.495-.625-4.056-.625.312.625-.62,1.562.312,1.874h.624v1.249c-.624.625-1.869,1.562-.936,2.188,1.249.938,4.68-.938,4.056,1.874,0-.312-.315.314-.624.314v.935c-.625.312-1.248-.312-1.871-.623-1.249-.312-2.494-.312-2.494.623-.624,1.562,0,3.75-.624,4.687-.622.624-3.118.624-4.055,0-.622-.625.313-2.5-.31-3.125-.312-.625-1.559-.311-2.493-.936v-1.249c-1.246-.312-2.807.623-3.742-.312-.311-.314.312-.937,0-1.25-.936-.938-3.428.313-2.8-1.564,0,0,1.245,0,1.557-.623v-.626c.624-.625.937-.625,1.872-.625-.312-.937.311-1.874.311-2.186-.935-.625-2.183,0-2.495-.938V447.2h.624c0-.625.312-1.564,0-1.875a1.413,1.413,0,0,0-1.56,0c-.309.311.314,1.561,0,1.561-1.556.939-1.246-1.25-1.556-1.561-1.559-.625-3.744-.313-5.3,0,0,0,.31.937,0,1.25h-.939v.937c.939,0,2.184-.312,2.5.624.625.626.625,2.187.315,3.124-.315,0-.938.312-1.249,0v-.937c-.312,0-.938-.312-.938,0-.308,1.249-.308,2.5-1.868,1.874v-.312c-.935-.313-2.182-.938-2.8,0-.312,0-.312,1.249,0,1.563a3.309,3.309,0,0,0,2.495.312c-.312,1.251.31,2.188.31,3.123-.622,0-.622.626-1.25.312,0,.625.315,1.562,0,1.562a1.608,1.608,0,0,1-2.491,0c0-.312-.311-.623-.937-.623,0-1.251.316-2.5-.308-2.812-.625-1.25-1.248.312-1.248,1.561a1.1,1.1,0,0,1-.624.312c-.625.939.309,2.188-.625,3.125h-1.557c-.312-.625,0-1.563,0-1.875.312,0,.312-.625.935-.311.313-1.251,0-1.874.313-2.812s1.243-.624,1.558-1.25a.956.956,0,0,0,0-1.25c-.624-.311-1.871.626-2.494-.311a2,2,0,0,1,0-1.876h.623c-.311-.936.622-1.561,1.556-1.249a.687.687,0,0,1,.315-.937c-1.249-.624-3.118-.937-4.366,0-.312,0,.623,1.562-.312,2.186h-.935c-.31.625.314,1.562,0,1.562-.937.937-2.8,1.251-3.43.314a4.176,4.176,0,0,0-2.494-.626c0-1.25.311-3.123-.309-3.436-.938-.624-3.12-.313-4.367,0a1.546,1.546,0,0,1-.311.937c-.936.313-1.872.625-2.183,1.561h-.623c-.625,2.5,2.493,1.25,4.052,1.564s.312,4.06-.312,5.623c-.311.311-1.557-.314-2.182,0v1.249c-.935.312-2.183-.313-3.43,0v.937s.936-.313,1.247,0a11.752,11.752,0,0,1-.311,3.435c-.313.314,0,1.25-.623,1.562h-1.561a1.92,1.92,0,0,0-2.182-1.248c-.309-.314-.622-.314-.622-.938a67.593,67.593,0,0,0-13.719-.937,1.711,1.711,0,0,0-1.248-1.874h-3.115c.312-.937-.625-1.25-1.248-.937.312-1.249-.311-2.812-1.56-2.188-.312.314.312,1.562,0,1.562-.312.313-.933,0-1.557,0v-.312h-2.494c.623.312.933,1.25.623,1.25-1.246.625-2.807,0-4.054.312-.621.313-.936,1.563-.621,1.563,1.557.312,1.557,2.185,1.557,3.747a31.076,31.076,0,0,0-4.989-.624c-1.247-.311-.622-1.562-1.247-1.875a4.624,4.624,0,0,0-4.054,0c-.31,0,.314-.312.314.313,1.248-.313,2.181.624,1.248.938-.938,1.248-4.678-.314-3.742,1.874,0,.312,1.245,0,2.18,0,0,.624-.31,1.25.314,1.562s1.869-.625,2.493.312a6.883,6.883,0,0,1,.312,2.5h.935c.625,2.187,1.247,5,0,6.872-.623.938-2.492,0-3.74,0v1.25c-3.43.626-6.547-1.25-10.289-.312.312.625-.311,1.875.312,2.187.935.312,2.182,0,2.492.312.624.311.315,1.561.315,2.5.932,0,1.247.624.932,1.249,0,.625-.932,1.25-1.247.938s0-1.563,0-1.563a1.956,1.956,0,0,0-1.868,0c-.313.314,0,1.25,0,1.875-.936-.312-.936.625-1.559,1.249a3.948,3.948,0,0,1-1.872.313c0,.312,0,1.249.314,1.562a12.516,12.516,0,0,1,3.428,0v1.563c-.311.312-1.247-.313-1.247,0v.624c-1.247.312-2.805.624-2.181,1.561.621,1.249,1.87,1.562,2.8,2.187.624.312,1.248,0,2.181,0,.624-.313.624-.938.938-1.563.309-.935.309-1.561.934-1.873a3.026,3.026,0,0,1,2.805.312c1.249.626,2.494-.936,3.433-.312.309,0,.309.938,0,1.249-.625.937-1.874,1.249-1.249,2.5,0,.313.934,0,1.558,0v-.625c1.871-.625,4.053-.312,5.922-.312,0,.625.314,1.562,0,1.562-1.869,1.25-3.426,0-5.3.313v.937c.935.625,1.559,1.875.935,2.186-.624.626-2.183.312-3.117.312a3.375,3.375,0,0,0-.625-1.873,10.62,10.62,0,0,0-3.117-.311v.623c.624,0,1.872-.312,1.872.312.624.312.624,1.563,0,2.5-.314.312-1.561.312-2.5,1.25v1.875a1.417,1.417,0,0,0,1.56,0,6.349,6.349,0,0,1,1.871-2.187c0,.626-.311,1.249,0,1.562a1.963,1.963,0,0,0,1.869,0c.938-1.25,2.183-.936,2.807-1.874h.936c.622.938-.623,2.185-.313,3.124h.313c0,1.249.312,2.5-.313,3.436,0,.116-.175.189-.426.22.425.438.783,1.014,1.259,1.463-.642.682-1.275,1.8-1.93,2.045-.87.468-1.121-.629-.919-1.3.215-.228.871-.47.856-.911s-.678-.642-1.13-1.07a.878.878,0,0,1,.037-.78,2.849,2.849,0,0,1-.239-1.547c-.938,0-2.5-.311-2.5,1.25-2.806.312-6.236-.938-8.417,1.876-.623.624-1.87,0-2.495,0,0-.626-.933-1.25-.309-1.564.934-.312,2.181-.312,3.117-.936a2.375,2.375,0,0,0,.311-2.5.968.968,0,0,1-.624-.312c-.311-.625.313-1.561.624-1.875a2.693,2.693,0,0,0,0-2.186c-1.247-.937-.624.936-1.247,1.562-.311,0-1.247.312-1.56-.314v-.312c-.935-.312-1.245,0-2.182.626,0,.624-1.249.624-2.181.312v-.938h-.624v.938c0-.312-.313-.626,0-.938h0c-1.248,1.25-3.12,1.25-3.744,0-.932-.624-.622-2.5-.309-3.748.309-.313.621-.624,1.247-.313-.626-1.562.625-2.187,1.87-2.812,0,0,0-.937.311-.937,1.558.312,3.12-.623,2.181-2.185a4.909,4.909,0,0,1-2.181,0v-.938a1.5,1.5,0,0,0-1.869-.626V490a13.937,13.937,0,0,1-7.172,0c-.623-.313-1.246-1.25-2.181-.625-.314.312.625.937.935,1.25.313.936.623,2.5,0,3.122a5.183,5.183,0,0,1-3.118,0,4.534,4.534,0,0,0-3.74-1.56c0,.623,0,.935-.314,1.248-1.869.625-4.052,0-5.924.312v.313c-.933.312-1.872-.313-2.8.312v.938h-.624c0,1.562-2.184,3.437-.623,4.374,2.179,1.248,4.675.312,7.17.936v.938a6.651,6.651,0,0,1-2.5,0,.671.671,0,0,0-.624.626,1.507,1.507,0,0,0,.624,1.873c.935,0,2.5-.312,2.5,0,.309,3.123,2.5,4.062,4.987,3.123v-1.561c0-.313.624-.313,1.248-.313-.938,2.5,1.248,2.186,3.117,3.124.315,0,.315.938.315,1.562.309-.312.933.313,1.245.625v.624c-2.494.312-4.677-.624-7.168-1.249-.625,0-1.249-.624-1.872-.624-1.563-.312-4.991-.938-4.053,1.873H90.47c-.934,2.187,1.248.938,2.495,1.875.313.312-.31.939,0,1.248Zm194.72,40.982a2.382,2.382,0,0,0,.139.254c0-.207,0-.416.012-.6a1.329,1.329,0,0,1,1.049-.689c1.929.052,3.831,1.182,5.485.352,0,0,.312-.625,0-.938h-.22a2.847,2.847,0,0,0,.743-2.024,23.185,23.185,0,0,1,2.6.151c0-.624.309-1.25-.313-1.563a2.712,2.712,0,0,0-2.267-.176c0-.506,0-1.026.053-1.54,1.412.137,2.776.744,3.763.365s1.214-2.736.275-2.827c-.85-1.033-2.729-1.218-3.292-.321a5.473,5.473,0,0,1-4.7-.456c-.936-.091-1.179-2.492-.1-3.815.043-.47,1.362.609,1.407.136,1.687-2.689-3.245-.789-3.106-2.2-.228-1.52-1.619-3.15-2.956-3.155a3.114,3.114,0,0,0,.117-2.354c-1.433-.958-2.865,1.437-1.433,2.392a1.85,1.85,0,0,0,.356.283l-.09.068c-.469-.046-.134,1.413-.134,1.413-1.975.758-4.659-.929-6.207.348-2.441.715-1.351,4.149-2.049,6.46a12.43,12.43,0,0,0,2.6.6v1.038c-2.18.623-4.675-.312-6.546.623-.312,0,0,1.876,0,3.124,2.5-.937,5.3-.311,7.481-1.872.313-.314.313-1.562,1.561-1.875v-.625a.837.837,0,0,0-.019-.2c.549.035,1.1.068,1.644.118a.144.144,0,0,0,.04.06c.322.351.965,1.057,1.641,1.084a1.457,1.457,0,0,0,.513-.821,10.423,10.423,0,0,1,2.282.789s-.608,1.368.286,1.93c-.047.472,1.456-.334,1.883.183-.045.472-.138,1.413-.138,1.413-1.97.759-4.278.061-6.16-.121a7.278,7.278,0,0,1-.509,1.348,3.636,3.636,0,0,1-2.087-.783c0,.623-.312,1.562,0,1.873s1.247,0,1.87,0,0,.936.626.624c0,.938-.315,2.187.309,3.125,0,.312.938,0,1.559,0,0-.938.624-2.5-.311-3.437h-.933c-.02-.12-.042-.229-.063-.328l1.664.161c-.184,1.885.709,2.448,1.65,2.538Z" transform="translate(-77.289 -444.963)" fill="#ffca05" fill-rule="evenodd"/>
</svg>
